<svg width="72" height="72" viewBox="0 0 72 72" fill="none" xmlns="http://www.w3.org/2000/svg">
<g clip-path="url(#clip0_881_25770)">
<path d="M33.0118 42.6914C30.9219 42.6914 29.2217 44.3829 29.2217 46.4621C29.2217 48.5413 30.9219 50.2329 33.0118 50.2329C35.1017 50.2329 36.802 48.5413 36.802 46.4621C36.802 44.3829 35.1017 42.6914 33.0118 42.6914ZM33.0118 48.1236C32.085 48.1236 31.3311 47.3783 31.3311 46.4622C31.3311 45.5462 32.085 44.801 33.0118 44.801C33.9387 44.801 34.6926 45.5463 34.6926 46.4622C34.6926 47.3783 33.9387 48.1236 33.0118 48.1236Z" fill="url(#paint0_linear_881_25770)"/>
<path d="M38.361 17.2645C38.5671 17.4704 38.8371 17.5734 39.1069 17.5734C39.3768 17.5734 39.6468 17.4704 39.8528 17.2645C40.2647 16.8525 40.2647 16.1848 39.8528 15.7729L39.8425 15.7627C39.4305 15.3509 38.7628 15.3509 38.3509 15.7627C37.939 16.1747 37.939 16.8424 38.3509 17.2543L38.361 17.2645Z" fill="url(#paint1_linear_881_25770)"/>
<path d="M71.5559 20.822C70.7011 17.472 68.6608 14.5355 65.8105 12.5535L63.6343 11.0403C63.1561 10.7079 62.4988 10.826 62.1662 11.3043C61.8338 11.7824 61.9519 12.4397 62.4302 12.7723L64.6064 14.2853C65.2916 14.7618 65.9196 15.3047 66.4879 15.8999L63.8466 16.5314C63.1942 16.6871 62.496 16.5726 61.93 16.2166L49.0956 8.14771C48.3734 7.69362 47.9423 6.91707 47.9423 6.07034V5.38014C50.3987 5.39012 52.8665 6.12322 55.0075 7.6115L58.3525 9.93736C58.8305 10.2698 59.488 10.1515 59.8204 9.6734C60.153 9.19526 60.0349 8.53796 59.5566 8.20537L56.2115 5.87951C50.442 1.86906 42.6432 2.54098 37.6549 7.4734L33.4706 11.186C32.504 12.0438 31.237 12.5677 29.9032 12.6613C26.008 12.9347 22.2347 13.8579 18.6669 15.4042C18.4754 14.7775 18.148 14.1942 17.696 13.6912L15.8559 11.6429C15.8559 11.6428 15.8559 11.6428 15.8559 11.6428C14.1705 9.76663 11.262 9.60153 9.37249 11.2749L2.51444 17.3485C1.59627 18.1616 1.05232 19.2819 0.982429 20.5027C0.912958 21.7225 1.32528 22.8959 2.14374 23.8069L3.98387 25.855C4.88994 26.8636 6.14913 27.3776 7.41381 27.3776C8.50157 27.3776 9.59355 26.9969 10.4673 26.223L12.5733 24.3579L13.9916 25.7658C12.8334 26.7765 11.7559 27.8817 10.7776 29.0745C9.82306 30.2387 8.96972 31.4769 8.22228 32.7725L5.91695 33.129C3.64186 33.481 1.79836 35.0554 1.1059 37.2381C0.643232 38.6962 0.282097 40.2063 0.0321995 41.7266C-0.0838193 42.4343 0.116858 43.1549 0.582902 43.7037C1.05443 44.2588 1.74323 44.5773 2.47295 44.5773H6.35192V51.8419H4.62795V51.1472C4.62795 50.5646 4.15586 50.0925 3.57323 50.0925C2.99061 50.0925 2.51852 50.5646 2.51852 51.1472V51.8419H2.51233C1.1554 51.8419 0.051325 52.946 0.051325 54.3029V55.888C0.051325 57.2449 1.1554 58.349 2.51233 58.349H14.0526C16.0142 61.4289 18.7251 64.0075 21.9114 65.8141C25.2766 67.7223 29.1152 68.7309 33.0122 68.7309C36.938 68.7309 40.8013 67.7082 44.1845 65.7735C47.3414 63.9681 50.0246 61.4058 51.9718 58.349H54.0484C54.6311 58.349 55.1032 57.8769 55.1032 57.2943C55.1032 56.7116 54.6311 56.2395 54.0484 56.2395H2.51233C2.3184 56.2395 2.16076 56.0819 2.16076 55.888V54.3029C2.16076 54.109 2.3184 53.9514 2.51233 53.9514H65.9881C66.182 53.9514 66.3397 54.109 66.3397 54.3029V55.888C66.3397 56.0819 66.182 56.2395 65.9881 56.2395H59.0257C58.4431 56.2395 57.971 56.7116 57.971 57.2943C57.971 57.8769 58.4431 58.349 59.0257 58.349H65.9881C67.345 58.349 68.4491 57.2449 68.4491 55.888V54.3029C68.4491 52.946 67.345 51.8419 65.9881 51.8419H62.0705V47.517H62.3543C63.032 47.517 63.6873 47.2352 64.1519 46.7439C64.6154 46.2539 64.8596 45.5869 64.8222 44.914C64.7767 44.0991 64.6938 43.2947 64.579 42.5008L70.466 30.8131C72.0238 27.7218 72.4109 24.1735 71.5559 20.822ZM43.1372 63.9421C40.0723 65.6949 36.5712 66.6213 33.0121 66.6213C29.479 66.6213 26.0003 65.7077 22.9517 63.9789C20.4649 62.5688 18.2982 60.6394 16.609 58.3488H21.2264C24.3883 61.4442 28.5644 63.1472 33.0121 63.1472C37.4706 63.1472 41.6384 61.4466 44.7996 58.3488H49.416C47.7418 60.6196 45.5985 62.5346 43.1372 63.9421ZM24.5051 58.3488H41.5197C39.0549 60.0964 36.1143 61.0378 33.0121 61.0378C29.917 61.0378 26.9722 60.0961 24.5051 58.3488ZM9.06887 24.644C8.04439 25.5514 6.46695 25.4624 5.55329 24.4452L3.71316 22.3971C3.27313 21.9074 3.0515 21.2772 3.08891 20.6229C3.12632 19.9676 3.4191 19.3655 3.91327 18.9276L10.7713 12.8541C11.2454 12.4342 11.8379 12.2276 12.4281 12.2276C13.1134 12.2276 13.796 12.5062 14.2869 13.0527V13.0526L16.127 15.101C16.5671 15.5906 16.7887 16.2208 16.7513 16.875C16.7139 17.5305 16.4211 18.1324 15.9269 18.5703L9.06887 24.644ZM2.19099 42.3381C2.14473 42.2835 2.09382 42.1925 2.11407 42.0684C2.34737 40.648 2.68488 39.2375 3.11675 37.8759C3.56522 36.4622 4.76197 35.4421 6.2397 35.2136L7.0268 35.0918C6.06743 37.1923 5.37328 39.4096 4.97263 41.688C4.92665 41.949 4.92468 42.2118 4.9618 42.4676H2.47338C2.32347 42.4678 2.2322 42.3866 2.19099 42.3381ZM8.46177 44.5778H10.6734C10.6207 45.2038 10.5915 45.8343 10.5915 46.462C10.5915 48.2859 10.8167 50.0894 11.2545 51.8418H8.46177V44.5778ZM49.7767 47.4933C49.8867 47.5085 49.9986 47.5169 50.1122 47.5169H53.2959C53.2197 48.9848 52.9829 50.4342 52.5912 51.8418H48.9162C49.3978 50.4389 49.6859 48.9838 49.7767 47.4933ZM46.666 51.8418H19.3578C18.6724 50.132 18.3245 48.3248 18.3245 46.462C18.3245 38.4251 24.9134 31.8864 33.0121 31.8864C41.1107 31.8864 47.6998 38.425 47.6998 46.462C47.6998 48.3254 47.3514 50.1323 46.666 51.8418ZM17.1079 51.8418H13.4338C12.9484 50.0974 12.7007 48.2911 12.7007 46.462C12.7007 45.834 12.731 45.2027 12.7892 44.5778H16.3228C16.2525 45.1965 16.2151 45.825 16.2151 46.462C16.2149 48.3131 16.5154 50.1168 17.1079 51.8418ZM59.961 51.8418H54.7704C55.1234 50.4283 55.3373 48.9808 55.4062 47.5169H59.961V51.8418ZM62.6193 45.2943C62.5794 45.3366 62.4917 45.4076 62.3541 45.4076H49.7746C49.2249 36.6971 41.9172 29.7773 33.0119 29.7773C25.1356 29.7773 18.509 35.1908 16.7025 42.4685H8.36797C8.36432 42.4685 8.3608 42.4679 8.35715 42.4679H7.40298C7.25673 42.4662 7.16743 42.3869 7.12735 42.3392C7.08811 42.2924 7.02567 42.1931 7.05028 42.0537C7.79801 37.8011 9.65107 33.7755 12.4089 30.4123C15.1352 27.0877 18.6816 24.4818 22.665 22.8763C23.2053 22.6586 23.4667 22.0441 23.2489 21.5038C23.0313 20.9636 22.4172 20.7019 21.8764 20.9199C19.653 21.816 17.5571 23.0021 15.6423 24.4322L14.156 22.9566L17.3255 20.1495C18.0715 19.4889 18.5706 18.6254 18.7689 17.67C22.3327 16.0194 26.126 15.0412 30.0511 14.7658C31.8465 14.6398 33.5581 13.929 34.8707 12.7643L39.0767 9.03241C39.0914 9.01919 39.1058 9.00583 39.1198 8.99191C41.0048 7.12028 43.3623 5.96389 45.8329 5.55128V6.07077C45.8329 7.64721 46.6328 9.09133 47.9729 9.93412L60.8072 18.003C61.5454 18.4672 62.4053 18.7088 63.2705 18.7088C63.6279 18.7088 63.9864 18.6676 64.3373 18.5835L67.9285 17.7248C68.2489 18.2207 68.5353 18.7386 68.7817 19.2768L65.1625 20.1432C64.146 20.3866 63.235 20.9743 62.5973 21.7981L61.8706 22.7365C61.5542 21.8938 60.9909 21.1382 60.2105 20.5953L50.5168 13.8561C48.6891 12.5843 46.2165 12.7992 44.6374 14.3672L39.9245 19.0464C39.0013 18.9542 38.0654 18.9061 37.1187 18.9061H32.3031C30.465 18.9061 28.6232 19.0869 26.829 19.4436C26.2577 19.5574 25.8867 20.1124 26.0002 20.6838C26.1138 21.255 26.6677 21.6253 27.2404 21.5127C28.8994 21.1827 30.6027 21.0155 32.303 21.0155H37.1186C50.7206 21.0155 61.9642 31.5647 62.7157 45.0313C62.7231 45.1635 62.6584 45.2528 62.6193 45.2943ZM42.5308 19.4315L44.7394 17.2387C45.0122 17.5613 45.3712 17.805 45.7916 17.9372C46.6567 18.2097 47.4987 18.6347 48.2936 19.2002C49.088 19.7656 49.7632 20.4198 50.3004 21.1446C50.7352 21.7309 51.4046 22.0663 52.1391 22.0663H52.1545C52.893 22.0617 53.591 21.7026 54.0214 21.1061L55.1003 19.6116L59.0057 22.3266C60.0198 23.032 60.3547 24.3407 59.8018 25.4384L59.7975 25.4473C59.7971 25.448 59.7968 25.4487 59.7964 25.4494L58.2234 28.5714C54.2421 23.9465 48.7512 20.6545 42.5308 19.4315ZM46.314 15.6948C47.1693 15.0025 48.3909 14.9467 49.3123 15.5878L53.3681 18.4073L52.3111 19.8714C52.2578 19.9451 52.1816 19.9565 52.1409 19.9567C52.081 19.9567 52.0287 19.934 51.995 19.8884C51.3257 18.9854 50.4919 18.1755 49.5165 17.4814C48.5413 16.7875 47.5012 16.264 46.4251 15.925C46.3702 15.9079 46.3333 15.8708 46.3147 15.8149C46.3043 15.7839 46.2985 15.7411 46.314 15.6948ZM68.582 29.864L63.8871 39.1849C63.0075 35.9808 61.5624 33.0151 59.6663 30.3962L61.64 26.4784L64.2647 23.089C64.6094 22.6439 65.1027 22.3259 65.6534 22.1941L69.4926 21.275C69.4986 21.2979 69.5058 21.3204 69.5117 21.3435C70.2409 24.2016 69.9108 27.2274 68.582 29.864Z" fill="url(#paint2_linear_881_25770)"/>
<path d="M54.9348 31.6018C54.9348 31.0192 54.4627 30.5471 53.8801 30.5471H46.4297C45.8471 30.5471 45.375 31.0192 45.375 31.6018C45.375 32.1845 45.8471 32.6566 46.4297 32.6566H53.8801C54.4627 32.6566 54.9348 32.1843 54.9348 31.6018Z" fill="url(#paint3_linear_881_25770)"/>
<path d="M47.9785 34.9814C47.9785 35.564 48.4506 36.0361 49.0332 36.0361H56.4836C57.0662 36.0361 57.5383 35.564 57.5383 34.9814C57.5383 34.3987 57.0662 33.9266 56.4836 33.9266H49.0332C48.4506 33.9266 47.9785 34.3987 47.9785 34.9814Z" fill="url(#paint4_linear_881_25770)"/>
<path d="M51.9112 40.7056C51.3285 40.7056 50.8564 41.1777 50.8564 41.7603C50.8564 42.3429 51.3285 42.815 51.9112 42.815H59.3615C59.9442 42.815 60.4163 42.3429 60.4163 41.7603C60.4163 41.1777 59.9442 40.7056 59.3615 40.7056H51.9112Z" fill="url(#paint5_linear_881_25770)"/>
<path d="M49.8115 38.3806C49.8115 38.9633 50.2836 39.4354 50.8662 39.4354H58.3166C58.8992 39.4354 59.3713 38.9633 59.3713 38.3806C59.3713 37.798 58.8992 37.3259 58.3166 37.3259H50.8662C50.2836 37.3259 49.8115 37.798 49.8115 38.3806Z" fill="url(#paint6_linear_881_25770)"/>
<path d="M7.53484 20.7624C7.12562 20.3477 6.4578 20.3434 6.04337 20.7524C5.62881 21.1615 5.62431 21.8293 6.03339 22.2439L6.04351 22.2542C6.24995 22.4633 6.52192 22.568 6.79431 22.568C7.06178 22.568 7.32967 22.4668 7.53512 22.2642C7.94969 21.8551 7.95419 21.1872 7.54511 20.7727L7.53484 20.7624Z" fill="url(#paint7_linear_881_25770)"/>
<path d="M10.7155 38.8976C10.3063 38.4828 9.6386 38.4785 9.22404 38.8876C8.80947 39.2966 8.80498 39.9645 9.21405 40.379L9.22418 40.3893C9.43062 40.5984 9.70258 40.7032 9.97498 40.7032C10.2424 40.7032 10.5103 40.6019 10.7158 40.3993C11.1303 39.9902 11.1348 39.3224 10.7258 38.9078L10.7155 38.8976Z" fill="url(#paint8_linear_881_25770)"/>
</g>
<defs>
<linearGradient id="paint0_linear_881_25770" x1="33.0118" y1="42.6914" x2="33.0118" y2="50.2329" gradientUnits="userSpaceOnUse">
<stop stop-color="#6BA777"/>
<stop offset="1" stop-color="#3E6B47"/>
</linearGradient>
<linearGradient id="paint1_linear_881_25770" x1="39.1018" y1="15.4539" x2="39.1018" y2="17.5734" gradientUnits="userSpaceOnUse">
<stop stop-color="#6BA777"/>
<stop offset="1" stop-color="#3E6B47"/>
</linearGradient>
<linearGradient id="paint2_linear_881_25770" x1="36.0001" y1="3.26917" x2="36.0001" y2="68.7309" gradientUnits="userSpaceOnUse">
<stop stop-color="#6BA777"/>
<stop offset="1" stop-color="#3E6B47"/>
</linearGradient>
<linearGradient id="paint3_linear_881_25770" x1="50.1549" y1="30.5471" x2="50.1549" y2="32.6566" gradientUnits="userSpaceOnUse">
<stop stop-color="#6BA777"/>
<stop offset="1" stop-color="#3E6B47"/>
</linearGradient>
<linearGradient id="paint4_linear_881_25770" x1="52.7584" y1="33.9266" x2="52.7584" y2="36.0361" gradientUnits="userSpaceOnUse">
<stop stop-color="#6BA777"/>
<stop offset="1" stop-color="#3E6B47"/>
</linearGradient>
<linearGradient id="paint5_linear_881_25770" x1="55.6363" y1="40.7056" x2="55.6363" y2="42.815" gradientUnits="userSpaceOnUse">
<stop stop-color="#6BA777"/>
<stop offset="1" stop-color="#3E6B47"/>
</linearGradient>
<linearGradient id="paint6_linear_881_25770" x1="54.5914" y1="37.3259" x2="54.5914" y2="39.4354" gradientUnits="userSpaceOnUse">
<stop stop-color="#6BA777"/>
<stop offset="1" stop-color="#3E6B47"/>
</linearGradient>
<linearGradient id="paint7_linear_881_25770" x1="6.78925" y1="20.4485" x2="6.78925" y2="22.568" gradientUnits="userSpaceOnUse">
<stop stop-color="#6BA777"/>
<stop offset="1" stop-color="#3E6B47"/>
</linearGradient>
<linearGradient id="paint8_linear_881_25770" x1="9.96991" y1="38.5836" x2="9.96991" y2="40.7032" gradientUnits="userSpaceOnUse">
<stop stop-color="#6BA777"/>
<stop offset="1" stop-color="#3E6B47"/>
</linearGradient>
<clipPath id="clip0_881_25770">
<rect width="72" height="72" fill="white"/>
</clipPath>
</defs>
</svg>
