<svg width="72" height="72" viewBox="0 0 72 72" fill="none" xmlns="http://www.w3.org/2000/svg">
<g clip-path="url(#clip0_881_25788)">
<path d="M19.5262 2.82963L61.0725 0.0507456C62.4268 -0.038973 63.6015 0.988012 63.6922 2.34195L64.0171 7.20153L69.5391 7.20153C70.896 7.20153 72 8.30558 72 9.66247L72 69.4936C72 70.8505 70.8959 71.9546 69.5391 71.9546L37.738 71.9546C37.4624 71.9546 37.1893 71.8419 36.9938 71.6473L32.1931 66.8679C32.1443 66.8783 32.0946 66.8866 32.0434 66.89L23.8475 67.4381C22.5394 67.5245 21.3155 66.4605 21.2278 65.1469L17.235 5.44948C17.1451 4.1096 18.1865 2.91921 19.5262 2.82963ZM36.6833 68.3471L36.6833 61.0206C36.6833 60.8268 36.5255 60.669 36.3317 60.669L29.0333 60.669L36.6833 68.3471ZM23.3325 65.0063C23.3668 65.2186 23.4915 65.3277 23.7066 65.3335L30.2147 64.8981L25.7496 60.4528C25.5507 60.255 25.4389 59.986 25.4389 59.7054L25.4389 9.6626C25.4389 8.30571 26.543 7.20167 27.8999 7.20167L38.8676 7.20167C40.2313 7.20167 40.2313 9.31104 38.8676 9.31104L27.8999 9.31104C27.7059 9.31104 27.5483 9.46882 27.5483 9.6626L27.5483 58.5596L36.3317 58.5596C37.6886 58.5596 38.7927 59.6637 38.7927 61.0206L38.7927 69.8452L69.5391 69.8452C69.7328 69.8452 69.8906 69.6874 69.8906 69.4936L69.8906 9.66261C69.8906 9.46883 69.7328 9.31104 69.5391 9.31104L44.4842 9.31104C43.1205 9.31104 43.1205 7.20167 44.4842 7.20167L61.9031 7.20167L61.5876 2.48286C61.5533 2.27037 61.4285 2.16139 61.2134 2.15562L19.6671 4.93437C19.4546 4.96868 19.3455 5.09341 19.3397 5.30857L23.3325 65.0063Z" fill="url(#paint0_linear_881_25788)"/>
<path d="M34.3373 33.3347L63.1025 33.3347C63.685 33.3347 64.1572 33.8069 64.1572 34.3894C64.1572 34.9719 63.685 35.4441 63.1025 35.4441L34.3373 35.4441C33.7547 35.4441 33.2826 34.9719 33.2826 34.3894C33.2826 33.8069 33.7547 33.3347 34.3373 33.3347Z" fill="url(#paint1_linear_881_25788)"/>
<path d="M34.3373 40.6873L63.1025 40.6873C63.685 40.6873 64.1572 41.1595 64.1572 41.7419C64.1572 42.3244 63.685 42.7966 63.1025 42.7966L34.3373 42.7966C33.7547 42.7966 33.2826 42.3244 33.2826 41.7419C33.2826 41.1595 33.7547 40.6873 34.3373 40.6873Z" fill="url(#paint2_linear_881_25788)"/>
<path d="M64.1572 27.0369C64.1572 27.6193 63.685 28.0916 63.1025 28.0916L34.3373 28.0916C33.7547 28.0916 33.2826 27.6193 33.2826 27.0369C33.2826 26.4544 33.7547 25.9822 34.3373 25.9822L63.1025 25.9822C63.685 25.9822 64.1572 26.4544 64.1572 27.0369Z" fill="url(#paint3_linear_881_25788)"/>
<path d="M59.0898 19.6842C59.0898 20.2667 58.6176 20.7389 58.0352 20.7389L39.4042 20.7389C38.8217 20.7389 38.3495 20.2667 38.3495 19.6842C38.3495 19.1017 38.8217 18.6295 39.4042 18.6295L58.0352 18.6295C58.6176 18.6295 59.0898 19.1017 59.0898 19.6842Z" fill="url(#paint4_linear_881_25788)"/>
<path d="M44.6126 61.7044C46.5095 61.7095 48.4063 61.7135 50.3032 61.7165C50.9408 61.7175 51.5783 61.7183 52.2157 61.7188C53.371 61.7196 54.1493 61.4877 54.4081 60.217C54.6269 59.1426 56.1468 59.2871 56.4421 60.217C57.1719 62.5144 58.379 61.6143 59.0552 60.0689C59.7297 58.5273 59.9027 56.8018 60.1973 55.1611C60.4139 53.9555 62.2372 54.2935 62.269 55.4415C62.3109 56.9534 62.4521 58.4412 62.8359 59.9075C63.2317 61.4203 63.825 62.8743 64.414 64.3198C64.9274 65.5799 62.8858 66.122 62.38 64.8806C61.8581 63.5998 61.3355 62.3119 60.9466 60.9833C60.2238 62.7214 58.7284 64.6873 56.5975 63.5287C56.201 63.3132 55.8308 63.0067 55.5058 62.6494C54.3977 63.9299 52.7483 63.829 51.2049 63.8271C49.0074 63.8243 46.8098 63.8195 44.6123 63.8138C43.2554 63.8103 43.2529 61.7009 44.6126 61.7044Z" fill="url(#paint5_linear_881_25788)"/>
<path d="M0.853153 34.6555C1.40117 34.1101 2.15464 33.8304 2.91964 33.8097L3.7167 33.8137L3.7167 32.3063C3.7167 31.3882 4.26205 30.4181 5.04322 29.9351L5.04322 27.8119C5.04322 23.4429 11.8455 23.4618 11.8455 27.8325L11.8455 29.9559C12.6413 30.4478 13.1751 31.3257 13.1751 32.3257L13.1751 33.8701C16.686 34.1091 16.696 39.4592 13.1712 39.6683C13.1487 44.3898 13.1498 49.0339 13.1751 53.8345C13.182 55.1583 11.0729 55.2359 11.0658 53.8456C11.0405 49.041 11.0393 44.3928 11.0617 39.6673L5.82889 39.6413C5.82889 39.6413 5.83564 55.2293 5.83563 62.2516C5.83563 65.6741 11.0696 65.6969 11.0696 62.216L11.0677 60.2927C10.9855 58.9314 13.0909 58.8044 13.1733 60.1655L13.1733 61.9703C13.1733 63.5172 12.6949 64.8273 11.7687 65.7488C11.6863 67.9556 10.7565 70.091 9.18561 71.6488C8.7349 72.096 8.11095 71.9593 7.67473 71.6232C6.07653 70.0222 5.17596 67.9116 5.11971 65.6588C4.42348 64.9654 3.7264 64.2671 3.7264 61.8765L3.72556 52.2647C1.90165 52.7834 -0.000159702 51.372 -0.000159534 49.4598L-0.00015842 36.709C-0.000158352 35.9323 0.302888 35.203 0.853153 34.6555ZM11.0658 33.8501L11.0658 32.3256C11.0658 32.0135 10.8516 31.7518 10.5633 31.6741L6.34104 31.6531C6.22292 31.6824 6.11394 31.7382 6.02562 31.8262C5.89695 31.9543 5.82608 32.1248 5.82608 32.3063L5.82608 33.8242L11.0658 33.8501ZM8.44015 26.5376C7.79271 26.5376 7.15273 27.1724 7.15273 27.8119L7.15273 29.5228L9.73629 29.5356L9.73629 27.8325C9.73615 27.1219 9.15509 26.5411 8.44015 26.5376ZM8.4417 69.2737C8.93206 68.5787 9.28671 67.7928 9.48471 66.9666C9.15818 67.0373 8.82743 67.0742 8.49654 67.0742C8.12712 67.0742 7.75784 67.0283 7.39418 66.9396C7.5874 67.7783 7.9415 68.569 8.4417 69.2737ZM2.10922 49.4598C2.10922 50.4583 3.71965 50.5369 3.71965 49.4782C3.71965 49.4782 3.71783 39.4975 3.7167 38.5825C3.716 37.9925 4.2065 37.5266 4.77955 37.5266L12.9905 37.5674C14.0089 37.5674 13.9851 35.974 12.9801 35.969L2.90923 35.9191C2.42225 35.9606 2.15562 36.224 2.10936 36.709L2.10936 49.4598L2.10922 49.4598Z" fill="url(#paint6_linear_881_25788)"/>
</g>
<defs>
<linearGradient id="paint0_linear_881_25788" x1="44.6148" y1="0.0452857" x2="44.6148" y2="71.9546" gradientUnits="userSpaceOnUse">
<stop stop-color="#6BA777"/>
<stop offset="1" stop-color="#3E6B47"/>
</linearGradient>
<linearGradient id="paint1_linear_881_25788" x1="48.7199" y1="33.3347" x2="48.7199" y2="35.4441" gradientUnits="userSpaceOnUse">
<stop stop-color="#6BA777"/>
<stop offset="1" stop-color="#3E6B47"/>
</linearGradient>
<linearGradient id="paint2_linear_881_25788" x1="48.7199" y1="40.6873" x2="48.7199" y2="42.7966" gradientUnits="userSpaceOnUse">
<stop stop-color="#6BA777"/>
<stop offset="1" stop-color="#3E6B47"/>
</linearGradient>
<linearGradient id="paint3_linear_881_25788" x1="48.7199" y1="25.9822" x2="48.7199" y2="28.0916" gradientUnits="userSpaceOnUse">
<stop stop-color="#6BA777"/>
<stop offset="1" stop-color="#3E6B47"/>
</linearGradient>
<linearGradient id="paint4_linear_881_25788" x1="48.7197" y1="18.6295" x2="48.7197" y2="20.7389" gradientUnits="userSpaceOnUse">
<stop stop-color="#6BA777"/>
<stop offset="1" stop-color="#3E6B47"/>
</linearGradient>
<linearGradient id="paint5_linear_881_25788" x1="54.0449" y1="54.4037" x2="54.0449" y2="65.5825" gradientUnits="userSpaceOnUse">
<stop stop-color="#6BA777"/>
<stop offset="1" stop-color="#3E6B47"/>
</linearGradient>
<linearGradient id="paint6_linear_881_25788" x1="7.90568" y1="24.5448" x2="7.90568" y2="71.9329" gradientUnits="userSpaceOnUse">
<stop stop-color="#6BA777"/>
<stop offset="1" stop-color="#3E6B47"/>
</linearGradient>
<clipPath id="clip0_881_25788">
<rect width="72" height="72" fill="white" transform="matrix(-1 -8.74228e-08 -8.74228e-08 1 72 0)"/>
</clipPath>
</defs>
</svg>
