<svg width="72" height="72" viewBox="0 0 72 72" fill="none" xmlns="http://www.w3.org/2000/svg">
<g clip-path="url(#clip0_881_25798)">
<path d="M69.2818 44.0396L68.3745 42.4176C67.8697 41.5161 67.0417 40.873 66.0434 40.6069C65.0451 40.3407 64.0068 40.4864 63.1196 41.0171C57.288 44.5101 43.122 52.8183 36.0004 55.468C28.8787 52.8183 14.7129 44.5101 8.88067 41.0168C7.99402 40.4863 6.95578 40.3406 5.95747 40.6068C4.95917 40.873 4.1313 41.5159 3.62603 42.418L2.71899 44.0395C1.79902 45.6838 2.23946 47.7802 3.74345 48.9158C5.92738 50.5656 9.77111 53.3496 14.526 56.2959C13.7767 61.2429 14.0037 66.2513 15.2072 71.1945C15.3222 71.6671 15.7455 71.9997 16.2319 71.9997H55.7712C56.2576 71.9997 56.681 71.667 56.7961 71.1942C57.998 66.2518 58.2247 61.2445 57.4764 56.2988C62.1764 53.3853 66.0036 50.6181 68.2572 48.9158C69.7612 47.7804 70.2018 45.6839 69.2818 44.0396ZM66.9858 47.2328C52.0623 58.5052 40.5483 62.8495 36 64.2588C32.5376 63.1909 28.7839 61.6487 24.8372 59.6724C24.3164 59.4114 23.6827 59.6224 23.422 60.1433C23.1611 60.6641 23.3719 61.2977 23.8928 61.5585C28.0631 63.6468 32.0342 65.2661 35.6957 66.3713C35.7951 66.4013 35.8978 66.4163 36.0004 66.4163C36.1031 66.4163 36.2059 66.4013 36.3053 66.3713C43.0275 64.3412 49.7949 60.9025 55.5133 57.4927C56.0337 61.6117 55.8405 65.7714 54.933 69.8906H17.0699C16.1612 65.7707 15.9678 61.6097 16.489 57.4892C17.6736 58.1954 18.903 58.9034 20.1693 59.6002C20.6798 59.8811 21.321 59.6948 21.6018 59.1846C21.8827 58.6743 21.6966 58.033 21.1863 57.752C13.9903 53.7923 7.96575 49.4617 5.01486 47.2325C4.34744 46.7286 4.15197 45.7987 4.56007 45.0693L5.46683 43.4483C5.69085 43.0483 6.05816 42.763 6.50099 42.6449C6.94382 42.527 7.40437 42.5914 7.79742 42.8266C13.7812 46.4107 28.4734 55.0235 35.646 57.5837C35.8754 57.6656 36.1259 57.6656 36.3552 57.5837C43.5278 55.0235 58.2199 46.4107 64.2033 42.8267C64.5967 42.5911 65.0573 42.5269 65.5001 42.6447C65.9429 42.7628 66.3101 43.0482 66.534 43.4476L67.441 45.0691C67.849 45.7988 67.6534 46.7288 66.9858 47.2328Z" fill="url(#paint0_linear_881_25798)"/>
<path d="M17.2747 14.8458C17.2923 15.1885 17.3181 15.5319 17.3522 15.8736C17.6334 18.7256 20.0187 20.9453 22.9011 21.0367C23.827 21.0654 24.755 21.0896 25.6834 21.1121C25.5062 27.1107 25.4684 33.2055 25.5748 39.2479C25.6042 40.8974 26.1997 42.5059 27.252 43.7779C28.8544 45.7104 30.4542 47.6915 32.0012 49.6075L33.0625 50.9213C33.7829 51.8127 34.8536 52.3242 36.0003 52.3246H36.0016C37.1484 52.3246 38.2198 51.8134 38.9416 50.9213L39.9301 49.697C41.5002 47.7517 43.1236 45.74 44.7492 43.7782C45.8024 42.5092 46.3985 40.9003 46.428 39.2478C46.4761 36.5434 46.4955 33.82 46.4858 31.1532C46.4837 30.572 46.0119 30.1023 45.4311 30.1023C45.4299 30.1023 45.4284 30.1023 45.4272 30.1023C44.8447 30.1044 44.3742 30.5783 44.3763 31.1608C44.386 33.8126 44.3666 36.5207 44.3188 39.2101C44.298 40.3853 43.8742 41.5293 43.1254 42.4315C41.4906 44.4045 39.8627 46.4215 38.2884 48.372L37.3012 49.5947C36.9823 49.9889 36.5085 50.2149 36.0013 50.2149C36.0012 50.2149 36.0009 50.2149 36.0007 50.2149C35.4941 50.2148 35.021 49.9889 34.7028 49.595L33.6421 48.2821C32.0908 46.3609 30.4866 44.3743 28.8762 42.4322C28.1282 41.528 27.7046 40.3837 27.6837 39.2102C27.5776 33.1951 27.6155 27.1276 27.7921 21.1561C30.4769 21.2077 33.1682 21.2367 35.8607 21.2367C38.647 21.2367 41.4327 21.206 44.2113 21.1507C44.2688 23.0835 44.3124 25.0305 44.3397 26.9545C44.3479 27.5319 44.8184 27.9943 45.394 27.9943C45.3991 27.9943 45.4041 27.9943 45.4092 27.9942C45.9917 27.986 46.4571 27.5072 46.4488 26.9247C46.4215 24.9952 46.3778 23.0427 46.3203 21.1043C47.1548 21.0835 47.9891 21.0623 48.8216 21.0365C51.7033 20.9451 54.0885 18.7255 54.3697 15.8746C54.4039 15.5322 54.4298 15.1885 54.4474 14.8456C58.3486 14.7206 61.5778 11.7156 61.9597 7.85284C62.1544 5.88886 62.1544 3.89717 61.9596 1.93192C61.9211 1.54787 61.8543 1.16579 61.761 0.796506C61.6431 0.328221 61.2217 0 60.7386 0H10.9836C10.5004 0 10.0791 0.328221 9.96099 0.796788C9.86776 1.16607 9.80096 1.54801 9.76229 1.93347C9.56752 3.89745 9.56752 5.88928 9.76229 7.85312C10.1442 11.7156 13.3733 14.7206 17.2747 14.8458ZM48.7557 18.9283C40.1993 19.1939 31.5226 19.1938 22.9672 18.9283C21.1405 18.8703 19.629 17.468 19.4513 15.6652C19.4261 15.413 19.4073 15.1601 19.3921 14.9075C24.8616 15.0578 30.3612 15.1335 35.8611 15.1335C41.3608 15.1335 46.8606 15.0578 52.3302 14.9075C52.315 15.1603 52.2961 15.4136 52.2709 15.6663C52.0931 17.468 50.5817 18.8703 48.7557 18.9283ZM11.8613 2.14272C11.8624 2.13161 11.8635 2.1205 11.8646 2.10939H59.8574C59.8585 2.12008 59.8596 2.13077 59.8606 2.14145C60.0416 3.96748 60.0416 5.81911 59.8606 7.64514V7.64528C59.5823 10.4593 57.2243 12.6485 54.3758 12.7375C42.0903 13.1194 29.6318 13.1194 17.3464 12.7375C14.4977 12.6485 12.1397 10.4592 11.8614 7.645C11.6804 5.81911 11.6804 3.96748 11.8613 2.14272Z" fill="url(#paint1_linear_881_25798)"/>
<path d="M43.7642 11.1762C44.1034 11.1886 44.4449 11.1948 44.7865 11.1948C45.1281 11.1948 45.4697 11.1886 45.8089 11.1762C47.4995 11.1142 48.8722 9.7413 48.9343 8.05099C48.9586 7.38696 48.9591 6.71323 48.9358 6.04863C48.8753 4.33174 47.4831 2.93969 45.7664 2.87922C45.1021 2.85588 44.4283 2.8563 43.7642 2.88077C42.0736 2.94279 40.7008 4.31571 40.6388 6.00616C40.6139 6.68454 40.6139 7.37248 40.6388 8.05085C40.7008 9.7413 42.0737 11.1142 43.7642 11.1762ZM42.7468 6.08351C42.7684 5.49133 43.2493 5.01054 43.8415 4.98874C44.155 4.97721 44.4707 4.97144 44.7862 4.97144C45.089 4.97144 45.3916 4.97679 45.6923 4.98733C46.3175 5.00927 46.8056 5.49738 46.8276 6.12274C46.8492 6.73699 46.8486 7.35968 46.8261 7.97351C46.8045 8.56554 46.3237 9.04648 45.7315 9.06813C45.1046 9.09119 44.4687 9.09119 43.8415 9.06813C43.2493 9.04648 42.7685 8.56554 42.7468 7.97337C42.7238 7.34646 42.7238 6.71055 42.7468 6.08351Z" fill="url(#paint2_linear_881_25798)"/>
<path d="M52.8257 11.1762C53.1649 11.1886 53.5065 11.1948 53.848 11.1948C54.1896 11.1948 54.5311 11.1886 54.8704 11.1762C56.5608 11.1142 57.9338 9.74128 57.9958 8.05083C58.0201 7.38652 58.0207 6.71293 57.9973 6.04875C57.937 4.33186 56.5448 2.93967 54.8279 2.87935C54.1636 2.856 53.49 2.85642 52.8257 2.88089C51.1351 2.94291 49.7623 4.31583 49.7003 6.00628C49.6754 6.68466 49.6754 7.3726 49.7003 8.05097C49.7622 9.74128 51.1351 11.1142 52.8257 11.1762ZM51.8083 6.08349C51.8299 5.49146 52.3107 5.01052 52.9029 4.98886C53.2164 4.97733 53.5321 4.97157 53.8476 4.97157C54.1504 4.97157 54.453 4.97691 54.7537 4.98746C55.3789 5.00939 55.867 5.4975 55.8889 6.12286C55.9106 6.73683 55.91 7.35952 55.8875 7.97363C55.8659 8.5658 55.3849 9.0466 54.7928 9.06839C54.1657 9.09146 53.5298 9.09146 52.9028 9.06839C52.3106 9.04674 51.8298 8.5658 51.8081 7.97363C51.7852 7.34644 51.7852 6.71067 51.8083 6.08349Z" fill="url(#paint3_linear_881_25798)"/>
<path d="M9.52454 27.8071L12.9336 29.4753C13.4103 29.7086 13.9179 29.8194 14.4197 29.8194C15.6016 29.8194 16.7494 29.2035 17.3748 28.1206L17.5497 27.8176C18.4403 26.2751 17.9802 24.2882 16.5022 23.2942L13.3531 21.1761C12.5737 20.652 11.6021 20.4728 10.6872 20.6847C9.77232 20.8965 8.97835 21.4846 8.50866 22.2978L8.07399 23.0507C7.60445 23.864 7.49223 24.8457 7.7663 25.7439C8.04038 26.642 8.68107 27.3944 9.52454 27.8071ZM9.90057 24.1057L10.3352 23.3528C10.5162 23.0394 10.8101 22.8217 11.1628 22.74C11.2613 22.7172 11.3603 22.7059 11.4584 22.7059C11.7117 22.7059 11.959 22.781 12.1756 22.9266L15.3248 25.0447C15.8861 25.4224 16.0609 26.1771 15.7227 26.7631L15.5479 27.066C15.2096 27.652 14.4685 27.878 13.8607 27.5806L10.4518 25.9123C10.1266 25.7533 9.88932 25.475 9.78385 25.1286C9.67838 24.7823 9.71959 24.4192 9.90057 24.1057Z" fill="url(#paint4_linear_881_25798)"/>
<path d="M5.08377 38.0741C5.71391 38.6625 6.55006 38.9894 7.40787 38.9894C7.48437 38.9894 7.56144 38.9867 7.63822 38.9815L11.4245 38.7218C13.2015 38.5999 14.5934 37.1093 14.5934 35.3281V34.9784C14.5934 33.1972 13.2015 31.7066 11.4245 31.5847L7.63822 31.3249C6.70222 31.2605 5.7703 31.5914 5.08391 32.2324C4.39752 32.8734 4.00391 33.7794 4.00391 34.7186V35.588C4.00377 36.5269 4.39752 37.4331 5.08377 38.0741ZM6.11314 34.7185C6.11314 34.3565 6.25883 34.0211 6.52334 33.7741C6.76564 33.5479 7.07473 33.4262 7.40239 33.4262C7.43262 33.4262 7.46314 33.4271 7.49366 33.4292L11.28 33.689C11.955 33.7354 12.4839 34.3015 12.4839 34.9782V35.328C12.4839 36.0047 11.9551 36.5708 11.28 36.6172L7.4938 36.8769C7.13267 36.901 6.78786 36.7794 6.52334 36.5321C6.25883 36.2851 6.11314 35.9497 6.11314 35.5877V34.7185Z" fill="url(#paint5_linear_881_25798)"/>
<path d="M60.577 31.5846C58.8001 31.7065 57.4082 33.1971 57.4082 34.9783V35.328C57.4082 37.1092 58.8001 38.5998 60.577 38.7217L64.3634 38.9815C64.4403 38.9868 64.5171 38.9893 64.5937 38.9893C65.4514 38.9893 66.2877 38.6624 66.9177 38.074C67.6041 37.433 67.9977 36.5269 67.9977 35.5878V34.7184C67.9977 33.7793 67.6041 32.8731 66.9177 32.2322C66.2313 31.5912 65.2995 31.2596 64.3632 31.3247L60.577 31.5846ZM64.5991 33.4261C64.9267 33.4261 65.236 33.5479 65.4781 33.774C65.7426 34.0211 65.8883 34.3564 65.8883 34.7184V35.5878C65.8883 35.9497 65.7426 36.2851 65.4781 36.5322C65.2135 36.7793 64.8686 36.9025 64.5077 36.877L60.7213 36.6173C60.0463 36.5709 59.5174 36.0047 59.5174 35.328V34.9783C59.5174 34.3016 60.0462 33.7354 60.7213 33.689L64.5077 33.4293C64.5383 33.4272 64.5687 33.4261 64.5991 33.4261Z" fill="url(#paint6_linear_881_25798)"/>
<path d="M58.6498 21.1763L55.5005 23.2944C54.0227 24.2885 53.5625 26.2754 54.4531 27.8179L54.6281 28.1208C55.2533 29.2036 56.4009 29.8196 57.5829 29.8194C58.0845 29.8194 58.5924 29.7085 59.069 29.4752L62.4779 27.8069C63.3215 27.3941 63.9625 26.6421 64.2364 25.744C64.5103 24.8458 64.3983 23.8641 63.9287 23.0509L63.494 22.298C63.0245 21.4846 62.2304 20.8966 61.3155 20.6848C60.4006 20.4729 59.4289 20.6521 58.6498 21.1763ZM61.6673 23.3528L62.102 24.1057C62.283 24.4191 62.3246 24.7825 62.219 25.1287C62.1134 25.475 61.8762 25.7533 61.5509 25.9124L58.142 27.5807C57.5339 27.8781 56.7931 27.6521 56.4548 27.0661C56.4548 27.0661 56.4548 27.0661 56.4548 27.066L56.2798 26.7632C55.9416 26.1772 56.1163 25.4224 56.6778 25.0448L59.8271 22.9267C60.0437 22.7811 60.2909 22.706 60.5443 22.706C60.6424 22.706 60.7414 22.7173 60.8399 22.7401C61.1923 22.8216 61.4863 23.0392 61.6673 23.3528Z" fill="url(#paint7_linear_881_25798)"/>
</g>
<defs>
<linearGradient id="paint0_linear_881_25798" x1="36.0004" y1="40.4768" x2="36.0004" y2="71.9997" gradientUnits="userSpaceOnUse">
<stop stop-color="#6BA777"/>
<stop offset="1" stop-color="#3E6B47"/>
</linearGradient>
<linearGradient id="paint1_linear_881_25798" x1="35.861" y1="0" x2="35.861" y2="52.3246" gradientUnits="userSpaceOnUse">
<stop stop-color="#6BA777"/>
<stop offset="1" stop-color="#3E6B47"/>
</linearGradient>
<linearGradient id="paint2_linear_881_25798" x1="44.7865" y1="2.86206" x2="44.7865" y2="11.1948" gradientUnits="userSpaceOnUse">
<stop stop-color="#6BA777"/>
<stop offset="1" stop-color="#3E6B47"/>
</linearGradient>
<linearGradient id="paint3_linear_881_25798" x1="53.848" y1="2.86218" x2="53.848" y2="11.1948" gradientUnits="userSpaceOnUse">
<stop stop-color="#6BA777"/>
<stop offset="1" stop-color="#3E6B47"/>
</linearGradient>
<linearGradient id="paint4_linear_881_25798" x1="12.811" y1="20.5977" x2="12.811" y2="29.8194" gradientUnits="userSpaceOnUse">
<stop stop-color="#6BA777"/>
<stop offset="1" stop-color="#3E6B47"/>
</linearGradient>
<linearGradient id="paint5_linear_881_25798" x1="9.29865" y1="31.317" x2="9.29865" y2="38.9894" gradientUnits="userSpaceOnUse">
<stop stop-color="#6BA777"/>
<stop offset="1" stop-color="#3E6B47"/>
</linearGradient>
<linearGradient id="paint6_linear_881_25798" x1="62.7029" y1="31.3167" x2="62.7029" y2="38.9893" gradientUnits="userSpaceOnUse">
<stop stop-color="#6BA777"/>
<stop offset="1" stop-color="#3E6B47"/>
</linearGradient>
<linearGradient id="paint7_linear_881_25798" x1="59.1918" y1="20.5978" x2="59.1918" y2="29.8194" gradientUnits="userSpaceOnUse">
<stop stop-color="#6BA777"/>
<stop offset="1" stop-color="#3E6B47"/>
</linearGradient>
<clipPath id="clip0_881_25798">
<rect width="72" height="72" fill="white"/>
</clipPath>
</defs>
</svg>
