<svg width="45" height="146" viewBox="0 0 45 146" fill="none" xmlns="http://www.w3.org/2000/svg">
<path d="M4.14645 141.646C3.95118 141.842 3.95118 142.158 4.14645 142.353L7.32843 145.535C7.52369 145.731 7.84027 145.731 8.03553 145.535C8.2308 145.34 8.2308 145.024 8.03553 144.828L5.20711 142L8.03553 139.171C8.2308 138.976 8.2308 138.66 8.03553 138.464C7.84027 138.269 7.52369 138.269 7.32843 138.464L4.14645 141.646ZM4.5 142.5H5.97917V141.5H4.5V142.5ZM8.9375 142.5H11.8958V141.5H8.9375V142.5ZM14.8542 142.5H17.8125V141.5H14.8542V142.5ZM20.7708 142.5H23.7292V141.5H20.7708V142.5ZM26.6875 142.5H29.6458V141.5H26.6875V142.5ZM32.6042 142.5H35.5625V141.5H32.6042V142.5ZM38.5208 142.5H40V141.5H38.5208V142.5ZM40 142.5C40.6092 142.5 41.1914 142.379 41.7227 142.158L41.3396 141.235C40.9276 141.405 40.4755 141.5 40 141.5V142.5ZM44.1583 139.723C44.3787 139.191 44.5 138.609 44.5 138H43.5C43.5 138.475 43.4055 138.928 43.2346 139.34L44.1583 139.723ZM44.5 138V136.519H43.5V138H44.5ZM44.5 133.556V130.593H43.5V133.556H44.5ZM44.5 127.631V124.668H43.5V127.631H44.5ZM44.5 121.705V118.743H43.5V121.705H44.5ZM44.5 115.78V112.817H43.5V115.78H44.5ZM44.5 109.855V106.892H43.5V109.855H44.5ZM44.5 103.93V100.967H43.5V103.93H44.5ZM44.5 98.0043V95.0416H43.5V98.0043H44.5ZM44.5 92.079V89.1163H43.5V92.079H44.5ZM44.5 86.1537V83.191H43.5V86.1537H44.5ZM44.5 80.2284V77.2658H43.5V80.2284H44.5ZM44.5 74.3031V71.3405H43.5V74.3031H44.5ZM44.5 68.3778V65.4152H43.5V68.3778H44.5ZM44.5 62.4526V59.4899H43.5V62.4526H44.5ZM44.5 56.5273V53.5646H43.5V56.5273H44.5ZM44.5 50.602V47.6394H43.5V50.602H44.5ZM44.5 44.6767V41.7141H43.5V44.6767H44.5ZM44.5 38.7514V35.7888H43.5V38.7514H44.5ZM44.5 32.8262V29.8635H43.5V32.8262H44.5ZM44.5 26.9009V23.9382H43.5V26.9009H44.5ZM44.5 20.9756V18.013H43.5V20.9756H44.5ZM44.5 15.0503V12.0877H43.5V15.0503H44.5ZM44.5 9.12504V7.64368H43.5V9.12504H44.5ZM44.5 7.64368C44.5 7.03444 44.3787 6.45228 44.1583 5.921L43.2346 6.30405C43.4055 6.71604 43.5 7.16818 43.5 7.64368H44.5ZM41.7227 3.48534C41.1914 3.26502 40.6092 3.14368 40 3.14368V4.14368C40.4755 4.14368 40.9276 4.23822 41.3396 4.40906L41.7227 3.48534ZM40 3.14368H38.625V4.14368H40V3.14368ZM35.875 3.14368H33.125V4.14368H35.875V3.14368ZM30.375 3.14368H27.625V4.14368H30.375V3.14368ZM24.875 3.14368H22.125V4.14368H24.875V3.14368ZM19.375 3.14368H16.625V4.14368H19.375V3.14368ZM13.875 3.14368H11.125V4.14368H13.875V3.14368ZM8.375 3.14368H7V4.14368H8.375V3.14368Z" fill="#3E6B47"/>
<ellipse cx="4" cy="3.64375" rx="3" ry="2.64375" fill="#FFB13D" stroke="#FFB13D"/>
</svg>
