<svg width="44" height="44" viewBox="0 0 44 44" fill="none" xmlns="http://www.w3.org/2000/svg">
<path d="M41.8355 20.0982C43.0132 20.0982 43.9714 19.14 43.9714 17.9623V11.2828C43.9714 10.1051 43.0132 9.14694 41.8355 9.14694H41.195V7.35007C41.195 6.93955 41.0708 6.54467 40.8359 6.20822L39.8283 4.76439C39.6246 4.47237 39.2228 4.40113 38.9309 4.60471C38.639 4.80839 38.5675 5.21023 38.7712 5.50216L39.7788 6.94608C39.8619 7.06519 39.9059 7.20492 39.9059 7.35016V41.6077C39.9059 42.216 39.411 42.711 38.8026 42.711H32.6362C32.0278 42.711 31.5329 42.216 31.5329 41.6077V7.35007C31.5329 7.20484 31.5768 7.0651 31.66 6.94591L35.5443 1.37974C35.6293 1.25788 35.8092 1.25753 35.8945 1.37974L37.0518 3.03807C37.2556 3.33009 37.6573 3.4015 37.9492 3.19775C38.2411 2.99407 38.3126 2.59223 38.1089 2.3003L36.9516 0.64205C36.3541 -0.214146 35.0844 -0.213888 34.4871 0.64205L30.6028 6.20814C30.3679 6.54467 30.2437 6.93955 30.2437 7.35007V9.14694H27.4792V7.35007C27.4792 6.93955 27.355 6.54467 27.1201 6.20822L23.2358 0.64205C22.6383 -0.214146 21.3686 -0.213888 20.7713 0.64205L16.887 6.20814C16.652 6.54467 16.5278 6.93955 16.5278 7.35007V9.14694H13.7633V7.35007C13.7633 6.93955 13.6391 6.54467 13.4043 6.20822L9.51989 0.64205C8.92245 -0.214146 7.65273 -0.213888 7.05546 0.64205L3.17109 6.20822C2.93622 6.54475 2.81204 6.93964 2.81204 7.35007V9.14694H2.16519C0.9875 9.14694 0.0292969 10.1051 0.0292969 11.2828V17.9623C0.0292969 19.14 0.9875 20.0982 2.16519 20.0982H2.81204V22.9027C2.81204 23.2587 3.10062 23.5472 3.45657 23.5472C3.81252 23.5472 4.1011 23.2587 4.1011 22.9027V7.35007C4.1011 7.20484 4.14502 7.06502 4.2282 6.94591L8.11258 1.37974C8.19766 1.25788 8.37752 1.25753 8.46277 1.37974L12.3471 6.94591C12.4302 7.06502 12.4742 7.20475 12.4742 7.34999V41.6075C12.4742 42.2159 11.9793 42.7109 11.3709 42.7109H5.20445C4.59602 42.7109 4.1011 42.2159 4.1011 41.6075V25.917C4.1011 25.5609 3.81252 25.2724 3.45657 25.2724C3.10062 25.2724 2.81204 25.5609 2.81204 25.917V28.7781H2.16519C0.9875 28.7781 0.0292969 29.7363 0.0292969 30.914V37.5935C0.0292969 38.7711 0.9875 39.7293 2.16519 39.7293H2.81204V41.6076C2.81204 42.9268 3.88523 44 5.20445 44H11.3708C12.69 44 13.7632 42.9268 13.7632 41.6076V39.7293H16.5278V41.6076C16.5278 42.9268 17.6009 44 18.9202 44H25.0865C26.4057 44 27.4789 42.9268 27.4789 41.6076V39.7293H30.2435V41.6076C30.2435 42.9268 31.3166 44 32.6359 44H38.8022C40.1215 44 41.1946 42.9268 41.1946 41.6076V39.7293H41.8351C43.0128 39.7293 43.971 38.7711 43.971 37.5935V30.914C43.971 29.7363 43.0128 28.7781 41.8351 28.7781H41.1946V20.0982H41.8355ZM2.16519 18.8092C1.69829 18.8092 1.31836 18.4293 1.31836 17.9623V11.2828C1.31836 10.8158 1.6982 10.436 2.16519 10.436H2.81204V18.8091H2.16519V18.8092ZM2.16519 38.4403C1.69829 38.4403 1.31836 38.0604 1.31836 37.5935V30.914C1.31836 30.447 1.6982 30.0671 2.16519 30.0671H2.81204V38.4402H2.16519V38.4403ZM27.4791 20.0982H30.2436V28.7781H27.4791V20.0982ZM30.2437 10.4361V18.8092H27.4792V10.4361H30.2437ZM13.7633 20.0982H16.5278V28.7781H13.7633V20.0982ZM16.5278 10.4361V18.8092H13.7633V10.4361H16.5278ZM13.7633 38.4403V30.0672H16.5278V38.4403H13.7633ZM26.19 41.6076C26.19 42.216 25.6951 42.7109 25.0867 42.7109H18.9203C18.3119 42.7109 17.817 42.216 17.817 41.6076V7.35007C17.817 7.20484 17.8609 7.0651 17.9441 6.94591L21.8284 1.37974C21.9135 1.25788 22.0933 1.25753 22.1786 1.37974L26.0629 6.94591C26.146 7.06502 26.19 7.20475 26.19 7.34999V41.6076ZM27.4791 38.4403V30.0672H30.2436V38.4403H27.4791ZM41.8355 10.4361C42.3024 10.4361 42.6823 10.8159 42.6823 11.2829V17.9624C42.6823 18.4294 42.3024 18.8092 41.8355 18.8092H41.195V10.4362H41.8355V10.4361ZM41.8355 30.0672C42.3024 30.0672 42.6823 30.4471 42.6823 30.914V37.5935C42.6823 38.0605 42.3024 38.4404 41.8355 38.4404H41.195V30.0673H41.8355V30.0672Z" fill="url(#paint0_linear_838_22577)"/>
<circle cx="8.5" cy="14.5" r="1.5" fill="#FFB13D"/>
<circle cx="22.5" cy="14.5" r="1.5" fill="#FFB13D"/>
<circle cx="35.5" cy="14.5" r="1.5" fill="#FFB13D"/>
<circle cx="35.5" cy="34.5" r="1.5" fill="#FFB13D"/>
<circle cx="22.5" cy="34.5" r="1.5" fill="#FFB13D"/>
<circle cx="8.5" cy="34.5" r="1.5" fill="#FFB13D"/>
<path d="M35.7195 31.9595C34.4801 31.9595 33.4717 32.9679 33.4717 34.2074C33.4717 35.4469 34.4801 36.4553 35.7195 36.4553C36.959 36.4553 37.9674 35.4469 37.9674 34.2074C37.9674 32.9679 36.9589 31.9595 35.7195 31.9595ZM35.7195 35.1662C35.1909 35.1662 34.7607 34.7361 34.7607 34.2075C34.7607 33.6788 35.1909 33.2487 35.7195 33.2487C36.2481 33.2487 36.6783 33.6788 36.6783 34.2075C36.6783 34.7361 36.2481 35.1662 35.7195 35.1662Z" fill="url(#paint1_linear_838_22577)"/>
<path d="M35.7195 12.3748C34.4801 12.3748 33.4717 13.3832 33.4717 14.6227C33.4717 15.8622 34.4801 16.8706 35.7195 16.8706C36.959 16.8706 37.9674 15.8622 37.9674 14.6227C37.9673 13.3831 36.9589 12.3748 35.7195 12.3748ZM35.7195 15.5814C35.1909 15.5814 34.7607 15.1513 34.7607 14.6227C34.7607 14.094 35.1909 13.6639 35.7195 13.6639C36.2481 13.6639 36.6783 14.094 36.6783 14.6227C36.6783 15.1513 36.2481 15.5814 35.7195 15.5814Z" fill="url(#paint2_linear_838_22577)"/>
<path d="M22.0008 31.9595C20.7613 31.9595 19.7529 32.9679 19.7529 34.2074C19.7529 35.4469 20.7613 36.4553 22.0008 36.4553C23.2403 36.4553 24.2487 35.4469 24.2487 34.2074C24.2487 32.9679 23.2403 31.9595 22.0008 31.9595ZM22.0008 35.1662C21.4722 35.1662 21.0421 34.7361 21.0421 34.2075C21.0421 33.6788 21.4722 33.2487 22.0008 33.2487C22.5294 33.2487 22.9595 33.6788 22.9595 34.2075C22.9595 34.7361 22.5294 35.1662 22.0008 35.1662Z" fill="url(#paint3_linear_838_22577)"/>
<path d="M22.0008 12.3748C20.7613 12.3748 19.7529 13.3832 19.7529 14.6227C19.7529 15.8622 20.7613 16.8706 22.0008 16.8706C23.2403 16.8706 24.2487 15.8622 24.2487 14.6227C24.2487 13.3831 23.2403 12.3748 22.0008 12.3748ZM22.0008 15.5814C21.4722 15.5814 21.0421 15.1513 21.0421 14.6227C21.0421 14.094 21.4722 13.6639 22.0008 13.6639C22.5294 13.6639 22.9595 14.094 22.9595 14.6227C22.9595 15.1513 22.5294 15.5814 22.0008 15.5814Z" fill="url(#paint4_linear_838_22577)"/>
<path d="M8.28791 36.4553C9.52738 36.4553 10.5358 35.4469 10.5358 34.2074C10.5358 32.9679 9.52738 31.9595 8.28791 31.9595C7.04843 31.9595 6.04004 32.9679 6.04004 34.2074C6.04004 35.4469 7.04843 36.4553 8.28791 36.4553ZM8.28791 33.2486C8.81659 33.2486 9.24671 33.6787 9.24671 34.2074C9.24671 34.736 8.81659 35.1661 8.28791 35.1661C7.7593 35.1661 7.32919 34.736 7.32919 34.2074C7.32919 33.6787 7.7593 33.2486 8.28791 33.2486Z" fill="url(#paint5_linear_838_22577)"/>
<path d="M8.28791 16.8705C9.52738 16.8705 10.5358 15.8621 10.5358 14.6226C10.5358 13.3831 9.52738 12.3746 8.28791 12.3746C7.04843 12.3746 6.04004 13.3831 6.04004 14.6226C6.04013 15.8621 7.04843 16.8705 8.28791 16.8705ZM8.28791 13.6638C8.81659 13.6638 9.24671 14.0939 9.24671 14.6226C9.24671 15.1512 8.81659 15.5813 8.28791 15.5813C7.7593 15.5813 7.32919 15.1512 7.32919 14.6226C7.32919 14.0939 7.7593 13.6638 8.28791 13.6638Z" fill="url(#paint6_linear_838_22577)"/>
<defs>
<linearGradient id="paint0_linear_838_22577" x1="22.0003" y1="0" x2="22.0003" y2="44" gradientUnits="userSpaceOnUse">
<stop stop-color="#6BA777"/>
<stop offset="1" stop-color="#3E6B47"/>
</linearGradient>
<linearGradient id="paint1_linear_838_22577" x1="35.7195" y1="31.9595" x2="35.7195" y2="36.4553" gradientUnits="userSpaceOnUse">
<stop stop-color="#6BA777"/>
<stop offset="1" stop-color="#3E6B47"/>
</linearGradient>
<linearGradient id="paint2_linear_838_22577" x1="35.7195" y1="12.3748" x2="35.7195" y2="16.8706" gradientUnits="userSpaceOnUse">
<stop stop-color="#6BA777"/>
<stop offset="1" stop-color="#3E6B47"/>
</linearGradient>
<linearGradient id="paint3_linear_838_22577" x1="22.0008" y1="31.9595" x2="22.0008" y2="36.4553" gradientUnits="userSpaceOnUse">
<stop stop-color="#6BA777"/>
<stop offset="1" stop-color="#3E6B47"/>
</linearGradient>
<linearGradient id="paint4_linear_838_22577" x1="22.0008" y1="12.3748" x2="22.0008" y2="16.8706" gradientUnits="userSpaceOnUse">
<stop stop-color="#6BA777"/>
<stop offset="1" stop-color="#3E6B47"/>
</linearGradient>
<linearGradient id="paint5_linear_838_22577" x1="8.28791" y1="31.9595" x2="8.28791" y2="36.4553" gradientUnits="userSpaceOnUse">
<stop stop-color="#6BA777"/>
<stop offset="1" stop-color="#3E6B47"/>
</linearGradient>
<linearGradient id="paint6_linear_838_22577" x1="8.28791" y1="12.3746" x2="8.28791" y2="16.8705" gradientUnits="userSpaceOnUse">
<stop stop-color="#6BA777"/>
<stop offset="1" stop-color="#3E6B47"/>
</linearGradient>
</defs>
</svg>
