<svg width="44" height="41" viewBox="0 0 44 41" fill="none" xmlns="http://www.w3.org/2000/svg">
<path d="M39.2175 9.32641C39.2175 10.8142 37.9327 11.1225 36.3479 11.1225C34.7631 11.1225 31.087 8.56949 31.087 7.08171C31.087 5.59392 33.8066 4.83679 35.3914 4.83679C36.9762 4.83679 39.2175 7.83863 39.2175 9.32641Z" fill="#FFB13D"/>
<path d="M13.8696 32.6734C13.8696 32.6734 10.6718 33.5715 9.08702 33.5715C7.50221 33.5715 7.65224 35.9572 7.65224 34.4694C7.65224 32.9817 8.45873 28.1837 10.0435 28.1837C11.6284 28.1837 13.8696 31.1856 13.8696 32.6734Z" fill="#FFB13D"/>
<path d="M39.089 6.26067L37.2279 4.51354C36.6692 3.98909 35.9264 3.70032 35.1364 3.70032C34.3463 3.70032 33.6035 3.98909 33.0449 4.51354L26.5202 10.6388C26.2052 10.9344 26.2052 11.4138 26.5202 11.7094C26.8351 12.005 27.3457 12.005 27.6606 11.7094L31.1195 8.46211L34.8828 11.995L14.8515 30.7998L11.0883 27.267L25.7599 13.4935C26.0749 13.1979 26.0749 12.7187 25.7599 12.423C25.445 12.1272 24.9344 12.1273 24.6195 12.423L9.37777 26.7317C9.29458 26.8098 9.23071 26.904 9.19035 27.0077L6.37506 34.2539C6.26753 34.5305 6.34061 34.8405 6.56248 35.0486C6.71645 35.1931 6.92253 35.2704 7.1328 35.2704C7.22553 35.2704 7.31891 35.2553 7.40901 35.2245L15.128 32.5817C15.2384 32.5439 15.3387 32.4839 15.4218 32.4057L39.0891 10.1875C40.2422 9.10478 40.2422 7.34322 39.089 6.26067ZM8.48381 33.2449L10.2721 28.642L13.3868 31.566L8.48381 33.2449ZM37.9486 9.11682L36.0233 10.9242L32.2601 7.39153L34.1854 5.58412C34.4394 5.34559 34.7771 5.21432 35.1364 5.21432C35.4956 5.21432 35.8333 5.34566 36.0874 5.58412L37.9485 7.33126C38.2026 7.56979 38.3424 7.88681 38.3424 8.22404C38.3424 8.56127 38.2027 8.87829 37.9486 9.11682Z" fill="url(#paint0_linear_838_22787)"/>
<path d="M42.8128 39.0145L26.9771 24.1473C26.6621 23.8517 26.1515 23.8517 25.8366 24.1473C25.5217 24.443 25.5217 24.9222 25.8366 25.218L40.2957 38.7928H35.4455V38.0792C35.4455 37.6611 35.0845 37.3222 34.6391 37.3222C34.1938 37.3222 33.8327 37.6611 33.8327 38.0792V38.7928H30.6967V38.0792C30.6967 37.6611 30.3356 37.3222 29.8903 37.3222C29.4449 37.3222 29.0838 37.6611 29.0838 38.0792V38.7928H25.9478V38.0792C25.9478 37.6611 25.5868 37.3222 25.1414 37.3222C24.696 37.3222 24.335 37.6611 24.335 38.0792V38.7928H21.199V38.0792C21.199 37.6611 20.838 37.3222 20.3926 37.3222C19.9472 37.3222 19.5862 37.6611 19.5862 38.0792V38.7928H16.4501V38.0792C16.4501 37.6611 16.0891 37.3222 15.6437 37.3222C15.1983 37.3222 14.8373 37.6611 14.8373 38.0792V38.7928H11.7013V38.0792C11.7013 37.6611 11.3403 37.3222 10.8949 37.3222C10.4496 37.3222 10.0885 37.6611 10.0885 38.0792V38.7928H6.95247V38.0792C6.95247 37.6611 6.59143 37.3222 6.14605 37.3222C5.70068 37.3222 5.33964 37.6611 5.33964 38.0792V38.7928H2.57474V3.38035L17.1822 17.0935C17.4972 17.3891 18.0078 17.3891 18.3226 17.0935C18.6375 16.7979 18.6375 16.3186 18.3226 16.023L2.33849 1.01739C2.10799 0.800853 1.76101 0.736184 1.45974 0.853252C1.15838 0.970473 0.961914 1.24651 0.961914 1.55272V39.5498C0.961914 39.9679 1.32295 40.3069 1.76833 40.3069H42.2424C42.5685 40.3069 42.8626 40.1224 42.9874 39.8395C43.1123 39.5567 43.0433 39.231 42.8128 39.0145Z" fill="url(#paint1_linear_838_22787)"/>
<path d="M13.9886 20.0907L8.46739 14.9075C8.23665 14.6909 7.88992 14.6263 7.58864 14.7434C7.28729 14.8606 7.09082 15.1367 7.09082 15.4428V25.8656C7.09082 26.2838 7.45186 26.6227 7.89723 26.6227C8.34261 26.6227 8.70365 26.2838 8.70365 25.8656V17.2704L12.8482 21.1613C13.1632 21.4569 13.6738 21.4569 13.9886 21.1613C14.3035 20.8656 14.3035 20.3863 13.9886 20.0907Z" fill="url(#paint2_linear_838_22787)"/>
<path d="M28.0162 33.2611L22.6423 28.2162C22.3274 27.9206 21.8168 27.9206 21.5019 28.2162C21.187 28.5119 21.187 28.9911 21.5019 29.2868L25.4992 33.0394H15.6844C15.239 33.0394 14.8779 33.3783 14.8779 33.7964C14.8779 34.2145 15.239 34.5535 15.6843 34.5535H27.446C27.7722 34.5535 28.0663 34.369 28.1911 34.0861C28.3158 33.8032 28.2468 33.4776 28.0162 33.2611Z" fill="url(#paint3_linear_838_22787)"/>
<defs>
<linearGradient id="paint0_linear_838_22787" x1="23.1401" y1="3.70032" x2="23.1401" y2="35.2704" gradientUnits="userSpaceOnUse">
<stop stop-color="#6BA777"/>
<stop offset="1" stop-color="#3E6B47"/>
</linearGradient>
<linearGradient id="paint1_linear_838_22787" x1="22.0054" y1="0.795654" x2="22.0054" y2="40.3069" gradientUnits="userSpaceOnUse">
<stop stop-color="#6BA777"/>
<stop offset="1" stop-color="#3E6B47"/>
</linearGradient>
<linearGradient id="paint2_linear_838_22787" x1="10.6578" y1="14.6858" x2="10.6578" y2="26.6227" gradientUnits="userSpaceOnUse">
<stop stop-color="#6BA777"/>
<stop offset="1" stop-color="#3E6B47"/>
</linearGradient>
<linearGradient id="paint3_linear_838_22787" x1="21.5652" y1="27.9945" x2="21.5652" y2="34.5535" gradientUnits="userSpaceOnUse">
<stop stop-color="#6BA777"/>
<stop offset="1" stop-color="#3E6B47"/>
</linearGradient>
</defs>
</svg>
