<svg width="44" height="44" viewBox="0 0 44 44" fill="none" xmlns="http://www.w3.org/2000/svg">
<path d="M29.1735 29.6522C29.1735 30.4446 27.0963 31.5652 26.3039 31.5652C25.5115 31.5652 24.8691 30.9229 24.8691 30.1305C24.8691 29.3381 25.9898 25.3479 26.7822 25.3479C27.5746 25.3479 31.0865 26.3044 29.1735 29.6522Z" fill="#FFB13D"/>
<path d="M40.1735 5.26088C40.1735 6.05329 34.7485 3.34784 33.9561 3.34784C33.1637 3.34784 32.5213 2.70546 32.5213 1.91305C32.5213 1.12065 33.1637 0.478271 33.9561 0.478271C34.7485 0.478271 42.0865 1.91305 40.1735 5.26088Z" fill="#FFB13D"/>
<path d="M40.9822 37.0494C41.471 36.4177 41.7544 35.6297 41.7544 34.7951C41.7544 33.3272 40.884 32.0007 39.5371 31.4158C39.2491 31.2905 38.9186 31.2905 38.6305 31.4157C37.2834 32.0007 36.413 33.3272 36.413 34.7951C36.413 35.6152 36.6867 36.3902 37.1599 37.0163H34.827C35.3003 36.3903 35.574 35.6153 35.574 34.7951C35.574 33.3992 34.7864 32.1316 33.551 31.5076L34.0254 30.2043C34.1492 29.8639 34.1332 29.4956 33.9801 29.1673C33.827 28.839 33.5551 28.5898 33.2147 28.4659L30.4758 27.4691L30.4988 27.4057C30.6227 27.0653 30.6066 26.697 30.4535 26.3688C30.3972 26.2478 30.3244 26.1378 30.2383 26.0406L35.9957 10.222C36.124 10.203 36.2503 10.1669 36.371 10.1107C36.6994 9.95752 36.9484 9.68571 37.0723 9.34531L37.5593 8.00754C37.6485 7.7622 37.8533 7.57881 38.107 7.51702L39.12 7.27021C39.7935 7.10625 40.3371 6.6195 40.5742 5.96819L41.0269 4.72435C41.4168 3.65282 40.8623 2.46363 39.7907 2.07357L34.4394 0.12591C33.9204 -0.0629777 33.3586 -0.0384859 32.8579 0.195003C32.3573 0.428491 31.9774 0.842875 31.7886 1.36202C31.754 1.46548 31.2908 2.70623 31.2836 2.77403C31.1197 3.37928 31.2375 4.0269 31.6128 4.53779L32.2303 5.37798C32.3849 5.58836 32.4239 5.86043 32.3345 6.10586L31.8477 7.44363C31.7238 7.78411 31.7398 8.15243 31.8929 8.48071C31.9493 8.60171 32.022 8.71171 32.1082 8.80881L31.144 11.4583C31.0222 11.7929 31.1947 12.1626 31.5292 12.2844C31.8636 12.4059 32.2334 12.2336 32.3553 11.8993L33.264 9.40246L33.5665 9.51254L34.7283 9.93544L29.0827 25.4468L27.6183 24.9139L31.3266 14.7255C31.4483 14.391 31.2759 14.0212 30.9413 13.8994C30.6071 13.778 30.237 13.9501 30.1152 14.2846L26.3511 24.6263C25.8745 24.6973 25.4502 25.0204 25.2742 25.5041L25.2511 25.5673L22.5122 24.5705C21.8095 24.3147 21.0296 24.6785 20.7738 25.3812L19.349 29.2956C18.8475 28.6936 18.1479 28.2606 17.3516 28.1013L13.9272 27.4164C13.0968 27.2503 12.4276 26.6121 12.2222 25.7906C11.5694 23.1794 9.23376 21.3558 6.54223 21.3558H2.06823C0.927853 21.3558 0 22.2836 0 23.424V41.9318C0 43.0723 0.927767 43.9999 2.06823 43.9999H6.86149C7.21743 43.9999 7.50601 43.7114 7.50601 43.3554C7.50601 42.9994 7.21743 42.7109 6.86149 42.7109H2.06823C1.63854 42.7109 1.28904 42.3614 1.28904 41.9318V41.1526H42.7103V41.9318C42.7103 42.3614 42.3608 42.7109 41.9311 42.7109H9.86925C9.5133 42.7109 9.22473 42.9994 9.22473 43.3554C9.22473 43.7114 9.5133 43.9999 9.86925 43.9999H41.9311C43.0715 43.9999 43.9993 43.0722 43.9993 41.9318V40.5081C43.9993 38.7438 42.6837 37.2819 40.9822 37.0494ZM39.0838 32.6252C39.9253 33.0183 40.4654 33.8629 40.4654 34.7951C40.4654 35.73 39.9188 36.5751 39.0838 36.9653C38.2487 36.5751 37.7021 35.73 37.7021 34.7951C37.7021 33.8629 38.2422 33.0183 39.0838 32.6252ZM34.285 34.7951C34.285 35.73 33.7384 36.5751 32.9033 36.9653C32.0683 36.5751 31.5216 35.73 31.5216 34.7951C31.5216 33.8629 32.0618 33.0183 32.9033 32.6252C33.7449 33.0183 34.285 33.8629 34.285 34.7951ZM25.2682 29.2896L26.4854 25.9449C26.4918 25.9276 26.5035 25.9147 26.5202 25.907C26.5371 25.8992 26.5544 25.8983 26.5717 25.9048L29.2473 26.8787H29.2474C29.2648 26.885 29.2776 26.8967 29.2854 26.9134C29.2932 26.9302 29.294 26.9475 29.2876 26.9649L28.0704 30.3094C27.7892 31.0819 26.9318 31.4816 26.1593 31.2006C25.3867 30.9193 24.987 30.062 25.2682 29.2896ZM37.8021 6.2645C37.1287 6.42847 36.5851 6.91521 36.3481 7.56652L35.8612 8.90437C35.8548 8.92173 35.8431 8.93454 35.8264 8.94227C35.8096 8.95026 35.7923 8.95087 35.775 8.94459L33.0993 7.97068H33.0993C33.0819 7.9644 33.0691 7.95263 33.0614 7.93596C33.0535 7.9192 33.0528 7.90193 33.0591 7.88448L33.546 6.54672C33.7831 5.89541 33.6796 5.17311 33.2692 4.61461L32.7546 3.91441L38.6464 6.05886L37.8021 6.2645ZM32.9999 1.80287C33.0711 1.60728 33.2142 1.45113 33.4028 1.36322C33.5915 1.27531 33.8031 1.26611 33.9986 1.33718L39.3498 3.28484C39.7536 3.43179 39.9625 3.87977 39.8155 4.28342L39.549 5.01559L32.7334 2.53496L32.9999 1.80287ZM21.985 25.8221C21.9978 25.7872 22.0364 25.769 22.0713 25.7818L24.8102 26.7787L24.0568 28.8486C23.5325 30.2891 24.2779 31.8875 25.7183 32.4119C26.0311 32.5256 26.3512 32.5796 26.6662 32.5796C27.8022 32.5796 28.871 31.8779 29.2815 30.7503L30.0349 28.6803L32.7738 29.6772C32.8087 29.6898 32.8268 29.7287 32.814 29.7635L32.1613 31.5568C30.98 32.1968 30.2325 33.435 30.2325 34.7951C30.2325 35.2672 30.3236 35.7242 30.4908 36.1466L30.3794 36.4527C30.3095 36.6447 30.2282 36.8329 30.1387 37.0163H22.9879C21.9067 37.0163 20.9928 36.2422 20.815 35.1756L20.1132 30.9646L21.985 25.8221ZM1.28904 23.424C1.28904 22.9944 1.63854 22.6449 2.06823 22.6449H6.54215C8.64105 22.6449 10.4626 24.067 10.9716 26.1033C11.2972 27.4055 12.358 28.4171 13.6744 28.6804L17.0988 29.3653C17.9906 29.5437 18.6902 30.2661 18.8396 31.1633L19.5436 35.3875C19.6465 36.0048 19.9054 36.5597 20.2754 37.0162H14.8812C14.5253 37.0162 14.2367 37.3047 14.2367 37.6608C14.2367 38.0168 14.5253 38.3053 14.8812 38.3053H40.5074C41.4978 38.3053 42.3375 38.9624 42.6138 39.8636H1.28904V23.424Z" fill="url(#paint0_linear_838_22623)"/>
<path d="M4.91602 26.916H6.33966C6.69561 26.916 6.98419 26.6275 6.98419 26.2714C6.98419 25.9154 6.69561 25.6269 6.33966 25.6269H4.91602C4.56006 25.6269 4.27148 25.9154 4.27148 26.2714C4.27148 26.6275 4.56006 26.916 4.91602 26.916Z" fill="url(#paint1_linear_838_22623)"/>
<path d="M12.6789 31.9661C12.6789 31.6101 12.3903 31.3216 12.0344 31.3216H4.91601C4.56006 31.3216 4.27148 31.6101 4.27148 31.9661C4.27148 32.3221 4.56006 32.6106 4.91601 32.6106H12.0344C12.3903 32.6106 12.6789 32.3221 12.6789 31.9661Z" fill="url(#paint2_linear_838_22623)"/>
<path d="M14.8143 34.8134C14.8143 34.4573 14.5257 34.1688 14.1697 34.1688H12.7461C12.3901 34.1688 12.1016 34.4573 12.1016 34.8134C12.1016 35.1694 12.3901 35.4579 12.7461 35.4579H14.1697C14.5257 35.4579 14.8143 35.1694 14.8143 34.8134Z" fill="url(#paint3_linear_838_22623)"/>
<defs>
<linearGradient id="paint0_linear_838_22623" x1="21.9997" y1="0.00012207" x2="21.9997" y2="43.9999" gradientUnits="userSpaceOnUse">
<stop stop-color="#6BA777"/>
<stop offset="1" stop-color="#3E6B47"/>
</linearGradient>
<linearGradient id="paint1_linear_838_22623" x1="5.62784" y1="25.6269" x2="5.62784" y2="26.916" gradientUnits="userSpaceOnUse">
<stop stop-color="#6BA777"/>
<stop offset="1" stop-color="#3E6B47"/>
</linearGradient>
<linearGradient id="paint2_linear_838_22623" x1="8.47518" y1="31.3216" x2="8.47518" y2="32.6106" gradientUnits="userSpaceOnUse">
<stop stop-color="#6BA777"/>
<stop offset="1" stop-color="#3E6B47"/>
</linearGradient>
<linearGradient id="paint3_linear_838_22623" x1="13.4579" y1="34.1688" x2="13.4579" y2="35.4579" gradientUnits="userSpaceOnUse">
<stop stop-color="#6BA777"/>
<stop offset="1" stop-color="#3E6B47"/>
</linearGradient>
</defs>
</svg>
