<svg width="44" height="44" viewBox="0 0 44 44" fill="none" xmlns="http://www.w3.org/2000/svg">
<path d="M7.24071 31.4079C8.19316 31.4079 9.09689 30.8665 9.52684 29.9463C9.72432 29.5237 9.92035 29.0996 10.1156 28.675L10.4291 28.7643C10.4881 28.7812 10.5475 28.7891 10.606 28.7891C10.8867 28.7891 11.145 28.6044 11.2256 28.321C11.3231 27.9787 11.1246 27.6221 10.7823 27.5246L10.657 27.4889C10.8421 27.0805 11.0261 26.6714 11.2091 26.2614L11.4639 26.3339C11.5229 26.3507 11.5823 26.3587 11.6408 26.3587C11.9215 26.3587 12.1797 26.174 12.2604 25.8906C12.3579 25.5482 12.1594 25.1917 11.8171 25.0942L11.7365 25.0712C11.9167 24.6613 12.0961 24.2508 12.2742 23.8395L12.4986 23.9035C12.5576 23.9203 12.617 23.9283 12.6755 23.9283C12.9562 23.9283 13.2144 23.7436 13.295 23.4602C13.3926 23.1178 13.1941 22.7613 12.8518 22.6637L12.7874 22.6454C12.9629 22.2341 13.1368 21.8219 13.31 21.4095L13.5333 21.4731C13.5923 21.4899 13.6517 21.4979 13.7102 21.4979C13.9909 21.4979 14.2491 21.3131 14.3297 21.0298C14.4273 20.6874 14.2288 20.3309 13.8865 20.2333L13.809 20.2112C13.9797 19.7983 14.1492 19.385 14.3175 18.9713L14.568 19.0427C14.6271 19.0595 14.6865 19.0675 14.745 19.0675C15.0257 19.0675 15.2839 18.8827 15.3645 18.5994C15.4621 18.257 15.2635 17.9005 14.9212 17.8029L14.8029 17.7692C15.3225 16.4715 15.8299 15.1709 16.3244 13.8692C17.3418 14.2672 18.362 14.6546 19.3842 15.0294C19.6336 15.121 19.8908 15.1651 20.1446 15.1651C20.8436 15.1651 21.5166 14.8308 21.9291 14.2355C23.0956 12.5518 23.8919 10.6814 24.2955 8.67595C24.49 7.70906 24.0003 6.72868 23.1047 6.29195C18.409 4.00411 13.5431 1.93274 8.64185 0.135606C7.70615 -0.208231 6.65994 0.118161 6.09808 0.929244C5.18757 2.2422 4.50032 3.67324 4.05525 5.18257C3.95453 5.52401 4.1497 5.88245 4.49113 5.98309C4.83264 6.08346 5.19101 5.88855 5.29155 5.54712C5.6977 4.17005 6.32539 2.86345 7.15744 1.6635C7.385 1.33496 7.81254 1.20416 8.19755 1.34561C8.93086 1.61451 9.66322 1.89037 10.3946 2.17139C9.25132 4.25745 8.31545 6.45583 7.60457 8.72511C6.8949 8.39279 6.18832 8.056 5.48612 7.71379C5.36383 7.65441 5.25924 7.57096 5.17528 7.46586C4.95304 7.18785 4.54759 7.14239 4.26941 7.36463C3.99131 7.58677 3.94594 7.9924 4.16817 8.2705C4.36995 8.52298 4.63095 8.73147 4.92202 8.87292C5.9006 9.34988 6.88708 9.81678 7.87966 10.2745C7.1155 11.8897 6.36733 13.519 5.63702 15.1586L5.38488 15.0868C5.04293 14.9892 4.68595 15.1876 4.58841 15.53C4.49087 15.8724 4.68939 16.229 5.03168 16.3265L5.11065 16.349C4.9307 16.7591 4.75178 17.1697 4.57406 17.5809L4.35019 17.5172C4.00833 17.4196 3.65125 17.6181 3.55371 17.9604C3.45618 18.3028 3.65469 18.6594 3.99698 18.7569L4.06152 18.7753C3.8863 19.1869 3.71193 19.5988 3.53911 20.0113L3.3155 19.9476C2.97346 19.85 2.61656 20.0485 2.51902 20.3909C2.42148 20.7332 2.62 21.0898 2.96229 21.1873L3.04109 21.2098C2.87068 21.6229 2.70173 22.0363 2.5338 22.45L2.28089 22.378C1.93894 22.2805 1.58187 22.4789 1.48441 22.8213C1.38687 23.1636 1.58539 23.5202 1.92768 23.6177L2.04954 23.6525C1.88385 24.067 1.71945 24.4818 1.55643 24.8968L1.24611 24.8083C0.904247 24.7108 0.547174 24.9092 0.449635 25.2516C0.352095 25.594 0.550612 25.9505 0.892903 26.0481L1.08601 26.1031C1.05833 26.1746 1.03032 26.2461 1.00273 26.3176C0.509877 27.5963 1.11179 29.0185 2.37293 29.5554L6.2428 31.2029C6.56971 31.3419 6.90813 31.4079 7.24071 31.4079ZM23.0313 8.42166C22.6625 10.2538 21.9349 11.9628 20.8689 13.5014C20.6413 13.83 20.2136 13.9611 19.828 13.8193C19.0947 13.5504 18.3626 13.2746 17.6316 12.9936C18.7745 10.908 19.7104 8.70964 20.4216 6.43976C21.131 6.77191 21.8373 7.10853 22.5394 7.45065C22.9079 7.63035 23.1101 8.0297 23.0313 8.42166ZM11.6058 2.64285C14.1769 3.65631 16.729 4.74266 19.2422 5.89354C18.534 8.19324 17.5868 10.4183 16.4203 12.5224C13.8481 11.5085 11.296 10.4221 8.78399 9.27168C9.49195 6.97249 10.4392 4.74747 11.6058 2.64285ZM9.0528 10.8095C11.0565 11.7133 13.0839 12.5763 15.1254 13.3946C14.6157 14.7363 14.0924 16.0768 13.556 17.4142L6.88931 15.5153C7.59443 13.9358 8.31623 12.3661 9.0528 10.8095ZM6.36225 16.7055L13.0701 18.6161C12.9015 19.0297 12.7319 19.443 12.561 19.8558L5.8248 17.9371C6.00278 17.5261 6.18187 17.1155 6.36225 16.7055ZM5.31149 19.1313L12.0612 21.0539C11.8878 21.4663 11.7132 21.8782 11.5374 22.2895L4.7883 20.3671C4.96147 19.9547 5.13601 19.5429 5.31149 19.1313ZM4.28891 21.5652L11.0232 23.4833C10.8449 23.8945 10.6652 24.3049 10.4846 24.7147L3.78085 22.8053C3.94912 22.3917 4.11824 21.9782 4.28891 21.5652ZM3.29607 24.0075L9.95644 25.9046C9.77313 26.3144 9.58897 26.7235 9.40351 27.1318L2.80236 25.2516C2.96564 24.8368 3.13021 24.422 3.29607 24.0075ZM2.20586 26.7812C2.24746 26.6733 2.28965 26.5656 2.33142 26.4578L8.86133 28.3177C8.69461 28.6793 8.52729 29.0404 8.35894 29.4006C8.07431 30.0096 7.36696 30.2802 6.74812 30.0169L2.87824 28.3693C2.25949 28.106 1.96421 27.4084 2.20586 26.7812Z" fill="url(#paint0_linear_838_22735)"/>
<path d="M34.2754 39.9795C34.2662 39.8533 34.22 39.7326 34.1429 39.6325L32.6458 37.692C32.4285 37.4102 32.0238 37.3578 31.7417 37.5754C31.46 37.7928 31.4076 38.1976 31.6251 38.4794L33.0037 40.2663L33.1613 42.4305L31.1076 41.7288L21.3573 29.0917C21.6333 28.8416 21.9396 28.5824 22.2774 28.3218C22.6144 28.0617 22.9422 27.8317 23.2535 27.6286L30.0997 36.5029C30.2267 36.6676 30.4175 36.7538 30.6105 36.7538C30.748 36.7538 30.8865 36.7099 31.0037 36.6195C31.2855 36.4021 31.3378 35.9973 31.1203 35.7155L24.3714 26.9671C25.1959 26.5284 25.7416 26.3452 25.7477 26.3431C26.9295 25.9685 27.5902 24.7011 27.2206 23.5179C26.8496 22.3296 25.5806 21.6649 24.3925 22.0359C24.2993 22.0651 22.079 22.7717 19.5192 24.7468C16.9582 26.7227 15.7124 28.6901 15.6608 28.7727C14.9993 29.8297 15.3195 31.2268 16.3748 31.8874C16.7415 32.1168 17.1583 32.2302 17.5738 32.2302C18.0626 32.2302 18.5496 32.0732 18.9512 31.7633C19.1624 31.6003 19.3418 31.4022 19.4804 31.1809C19.4857 31.1727 19.8013 30.6912 20.4342 30.0055L30.2056 42.6698C30.2828 42.7699 30.3878 42.8451 30.5075 42.886L33.6666 43.9654C33.7346 43.9887 33.8049 44.0001 33.8749 44.0001C34.0155 44.0001 34.1543 43.9541 34.2687 43.8658C34.4399 43.7336 34.5335 43.5245 34.5178 43.3087L34.2754 39.9795ZM18.3919 30.4903C18.3304 30.5884 18.2537 30.6733 18.1638 30.7427C18.1637 30.7427 18.1636 30.7427 18.1636 30.7427C17.8454 30.9883 17.4012 31.009 17.0586 30.7946C16.6059 30.5112 16.469 29.911 16.7535 29.4563C16.8003 29.3816 17.9264 27.6036 20.3066 25.7673C22.6858 23.9316 24.6924 23.2926 24.7768 23.2663C24.8725 23.2364 24.9696 23.2221 25.0651 23.2221C25.4776 23.2221 25.8609 23.488 25.9903 23.9022C26.1489 24.4098 25.8654 24.9535 25.3542 25.1156C25.2815 25.1392 23.551 25.7112 21.4902 27.3011C20.9326 27.7313 20.453 28.1582 20.0484 28.5535C20.0465 28.5553 20.0447 28.5571 20.0428 28.5589C18.9402 29.6369 18.4006 30.4766 18.3919 30.4903Z" fill="url(#paint1_linear_838_22735)"/>
<path d="M11 34.5C11 35.3284 10.8284 38.5 10 38.5C9.17157 38.5 7 36.3284 7 35.5C7 34.6716 7.67157 34 8.5 34C9.32843 34 11 33.6716 11 34.5Z" fill="#FFB13D"/>
<path d="M11 39C11 39.8284 10.3284 42 9.5 42C8.67157 42 6.5 40.3284 6.5 39.5C6.5 38.6716 7.67157 38.5 8.5 38.5C9.32843 38.5 11 38.1716 11 39Z" fill="#FFB13D"/>
<path d="M38 7C38 7.82843 37.8284 9.00009 37 9.00009C36 8 29.5 7 30 5.50002C30 4.6716 35.1716 5.50003 36 5.50003C36.8284 5.50003 38 6.17157 38 7Z" fill="#FFB13D"/>
<path d="M29.4095 21.3395C29.477 21.545 29.6432 21.7028 29.8518 21.7598C29.9078 21.7751 29.9649 21.7826 30.0217 21.7826C30.1761 21.7826 30.3275 21.7271 30.4464 21.6228L32.266 20.0287C32.3611 19.9453 32.4296 19.8357 32.463 19.7137L35.462 8.73531C35.9393 8.96983 36.2037 9.14996 36.2062 9.15159C36.5234 9.37658 36.8893 9.48469 37.2522 9.4846C37.8184 9.4846 38.3771 9.2212 38.7302 8.72749C39.0121 8.33355 39.1237 7.85341 39.0444 7.37543C38.9652 6.89753 38.7045 6.47909 38.3108 6.1973C38.2521 6.15536 36.8491 5.16244 34.5577 4.53655C32.2662 3.91058 30.5533 4.05229 30.4818 4.05856C29.9995 4.10102 29.562 4.32867 29.2502 4.69949C28.9377 5.07109 28.789 5.54168 28.8316 6.0244C28.8978 6.77747 29.4312 7.41694 30.1586 7.61571H30.1587C30.3655 7.67217 30.5795 7.69108 30.786 7.67303C30.7922 7.67251 31.1125 7.65172 31.6428 7.69228L28.6439 18.6703C28.6105 18.7923 28.6139 18.9214 28.6534 19.0416L29.4095 21.3395ZM30.6818 6.38843C30.6195 6.39393 30.5574 6.38851 30.4983 6.37236C30.2887 6.31504 30.1349 6.12984 30.1156 5.91156C30.1034 5.7726 30.1464 5.63682 30.2368 5.52939C30.3276 5.42154 30.4547 5.35528 30.595 5.34299C30.6102 5.34145 32.1472 5.21469 34.218 5.78033C36.2889 6.34606 37.5479 7.23672 37.5605 7.24583C37.6745 7.32739 37.7499 7.44839 37.7728 7.58658C37.7957 7.72476 37.7635 7.86364 37.6819 7.97768C37.5144 8.21195 37.1869 8.26703 36.9487 8.09799C36.9023 8.0656 35.793 7.29808 33.9417 6.79242C32.6239 6.43243 31.5484 6.37889 31.0254 6.37889C30.8091 6.3788 30.6871 6.38791 30.6818 6.38843ZM32.9293 7.87516C33.1431 7.91916 33.3679 7.97184 33.6019 8.03586C33.8354 8.09963 34.0552 8.16829 34.2612 8.23893L31.2706 19.1869L30.3295 20.0114L29.9385 18.8231L32.9293 7.87516Z" fill="url(#paint2_linear_838_22735)"/>
<path d="M19.8387 36.7804L19.2418 36.6646L19.2377 36.4006C19.2324 36.048 18.9449 35.7658 18.5934 35.7658C18.5902 35.7658 18.5868 35.7658 18.5835 35.7659C18.2297 35.7712 17.947 36.0608 17.9491 36.414L17.1513 36.2593L17.1473 35.9952C17.1419 35.6426 16.8545 35.3605 16.503 35.3605C16.4997 35.3605 16.4964 35.3605 16.493 35.3605C16.1392 35.3659 15.8566 35.6555 15.8586 36.0086L15.061 35.8539L15.0569 35.5898C15.0516 35.2339 14.7629 34.9493 14.4027 34.9552C14.0489 34.9605 13.7662 35.2501 13.7683 35.6032L12.1052 35.2808L12.3528 34.0039C12.3853 33.8361 12.3499 33.6622 12.2542 33.5205C12.1586 33.3788 12.0106 33.2809 11.8427 33.2484L9.89694 32.8712C9.07056 32.7108 8.23086 32.8821 7.53287 33.3533C6.83497 33.8245 6.3624 34.5392 6.20212 35.3658L6.07021 36.0464C6.03764 36.2142 6.07304 36.3881 6.16869 36.5298C6.26434 36.6714 6.41233 36.7694 6.58016 36.8019L7.74729 37.0282C7.85514 37.049 7.94847 37.1108 8.01 37.2019C8.07153 37.2931 8.09396 37.4026 8.07291 37.5105C8.02977 37.7333 7.81389 37.8795 7.59062 37.8362L6.4235 37.61C6.25558 37.5774 6.08172 37.6129 5.9401 37.7085C5.79847 37.8042 5.70059 37.9523 5.66802 38.1201L5.5361 38.8007C5.37583 39.6273 5.5471 40.4669 6.01822 41.1648C6.48941 41.8627 7.20416 42.3353 8.03071 42.4955L9.97652 42.8728C10.0179 42.8809 10.0593 42.8848 10.0999 42.8848C10.4024 42.8848 10.6723 42.6708 10.732 42.3628L10.9796 41.0857L13.8599 41.6442L13.8639 41.9083C13.8693 42.2609 14.1567 42.5431 14.5082 42.5431C14.5115 42.5431 14.5148 42.5431 14.5182 42.543C14.872 42.5377 15.1546 42.248 15.1526 41.8949L15.9503 42.0496L15.9544 42.3137C15.9597 42.6663 16.2472 42.9484 16.5986 42.9484C16.6019 42.9484 16.6053 42.9484 16.6086 42.9484C16.9624 42.943 17.2451 42.6534 17.243 42.3003L18.0407 42.455L18.0447 42.7191C18.0501 43.0717 18.3375 43.3538 18.689 43.3538C18.6923 43.3538 18.6956 43.3538 18.699 43.3537C19.0549 43.3483 19.339 43.0553 19.3336 42.6995L19.3326 42.6305C19.8156 42.6101 20.2853 42.4585 20.6963 42.1811C21.2817 41.7859 21.6781 41.1864 21.8125 40.493L21.9314 39.8798C22.0658 39.1864 21.9222 38.4822 21.527 37.8968C21.1316 37.3112 20.532 36.9148 19.8387 36.7804ZM8.27598 41.23C7.78742 41.1352 7.36495 40.8559 7.08643 40.4434C6.8079 40.0309 6.70675 39.5346 6.80154 39.0461L6.81074 38.9982L7.3451 39.1018C8.26558 39.2805 9.15985 38.6766 9.33834 37.7561C9.4248 37.3101 9.33242 36.8572 9.07821 36.4807C8.82401 36.1042 8.43849 35.8493 7.99256 35.7628L7.45819 35.6592L7.46747 35.6112C7.56218 35.1227 7.84156 34.7002 8.25398 34.4217C8.66665 34.1431 9.16277 34.042 9.65133 34.1367L10.9643 34.3912L9.58885 41.4846L8.27598 41.23ZM11.2249 39.8202L11.767 37.0243L11.8598 36.5463L13.788 36.9202L13.8399 40.3273L11.2249 39.8202ZM15.1328 40.578L15.0809 37.1709L15.8783 37.3255L15.9302 40.7326L15.1328 40.578ZM17.2232 40.9834L17.1713 37.5763L17.9688 37.7309L18.0207 41.138L17.2232 40.9834ZM20.6657 39.6342L20.5468 40.2474C20.4779 40.6028 20.2748 40.91 19.9748 41.1125C19.7747 41.2476 19.5475 41.3239 19.3128 41.3402L19.2617 37.9815L19.5932 38.0458C19.9487 38.1147 20.2559 38.3178 20.4585 38.6178C20.661 38.9179 20.7347 39.2789 20.6657 39.6342Z" fill="url(#paint3_linear_838_22735)"/>
<path d="M41.9447 17.8369L41.3376 17.5021C41.0259 17.3302 40.6339 17.4435 40.462 17.7552L39.8878 18.7961C39.8348 18.8924 39.7473 18.9622 39.6417 18.9927C39.5362 19.0233 39.4249 19.0109 39.3287 18.9578C39.2324 18.9047 39.1626 18.8173 39.1322 18.7116C39.1017 18.606 39.114 18.4949 39.1671 18.3987L39.7412 17.3576C39.9131 17.0459 39.7998 16.6539 39.4881 16.482L38.881 16.1472C37.3591 15.3078 35.4379 15.8631 34.5982 17.3852L33.6411 19.1207C33.4692 19.4324 33.5825 19.8245 33.8942 19.9963L35.0332 20.6245L33.6162 23.1937L33.3637 23.1164C33.0233 23.0121 32.6629 23.2035 32.5587 23.5438C32.4549 23.8822 32.6437 24.2401 32.9803 24.3468L32.5879 25.0583L32.3354 24.981C31.9947 24.8766 31.6346 25.0681 31.5303 25.4084C31.4266 25.7468 31.6153 26.1047 31.952 26.2114L31.5596 26.9229L31.3072 26.8456C30.9665 26.7411 30.6064 26.9327 30.5021 27.273C30.3978 27.6134 30.5892 27.9739 30.9296 28.0781L30.9943 28.098C30.8652 28.564 30.8663 29.0578 31.004 29.5341C31.2001 30.2126 31.6487 30.7742 32.2672 31.1152L32.8141 31.4169C33.2106 31.6356 33.6467 31.7469 34.0873 31.7469C34.3338 31.7469 34.5819 31.7121 34.8254 31.6417C35.5039 31.4455 36.0655 30.9969 36.4065 30.3784L36.7001 29.8459L36.9526 29.9233C37.0155 29.9426 37.0792 29.9517 37.1417 29.9517C37.4174 29.9517 37.6727 29.7732 37.7577 29.4958C37.8614 29.1575 37.6727 28.7996 37.3361 28.6929L37.7284 27.9813L37.9809 28.0587C38.0438 28.078 38.1075 28.0871 38.17 28.0871C38.4458 28.0871 38.701 27.9086 38.786 27.6312C38.8897 27.2929 38.701 26.935 38.3644 26.8283L38.7568 26.1167L39.0092 26.1941C39.0721 26.2134 39.1358 26.2225 39.1982 26.2225C39.474 26.2225 39.7293 26.044 39.8142 25.7666C39.918 25.4283 39.7293 25.0704 39.3927 24.9637L40.2109 23.4803L41.3498 24.1084C41.4484 24.1628 41.5553 24.1886 41.6605 24.1886C41.8877 24.1886 42.1079 24.0682 42.2254 23.8553L43.1827 22.1198C44.0221 20.5976 43.4668 18.6763 41.9447 17.8369ZM36.1619 21.2472L39.0821 22.8577L38.1336 24.5777L34.8755 23.5796L36.1619 21.2472ZM35.2777 29.7558C35.1029 30.0727 34.8151 30.3027 34.4673 30.4032C34.1197 30.5037 33.7535 30.4628 33.4365 30.288L32.8896 29.9864C32.5727 29.8116 32.3428 29.5238 32.2423 29.176C32.1752 28.9441 32.1725 28.7043 32.229 28.4761L35.4408 29.46L35.2777 29.7558ZM36.0769 28.3068L32.8188 27.3087L33.2111 26.5975L36.4692 27.5956L36.0769 28.3068ZM37.1052 26.4422L33.8471 25.4441L34.2394 24.7329L37.4974 25.731L37.1052 26.4422ZM42.054 21.4971L41.408 22.6682L35.081 19.1787L35.727 18.0076C36.2232 17.1079 37.3588 16.7798 38.2584 17.2759L38.3011 17.2994L38.0383 17.776C37.8189 18.1738 37.7675 18.6332 37.8937 19.0696C38.0199 19.5061 38.3084 19.8672 38.7061 20.0865C39.1037 20.3058 39.5631 20.3571 39.9996 20.231C40.436 20.1049 40.7971 19.8163 41.0165 19.4186L41.2794 18.942L41.3222 18.9655C42.2219 19.4619 42.5501 20.5975 42.054 21.4971Z" fill="url(#paint4_linear_838_22735)"/>
<defs>
<linearGradient id="paint0_linear_838_22735" x1="12.3813" y1="0" x2="12.3813" y2="31.4079" gradientUnits="userSpaceOnUse">
<stop stop-color="#6BA777"/>
<stop offset="1" stop-color="#3E6B47"/>
</linearGradient>
<linearGradient id="paint1_linear_838_22735" x1="24.918" y1="21.9331" x2="24.918" y2="44.0001" gradientUnits="userSpaceOnUse">
<stop stop-color="#6BA777"/>
<stop offset="1" stop-color="#3E6B47"/>
</linearGradient>
<linearGradient id="paint2_linear_838_22735" x1="33.8452" y1="4.04053" x2="33.8452" y2="21.7826" gradientUnits="userSpaceOnUse">
<stop stop-color="#6BA777"/>
<stop offset="1" stop-color="#3E6B47"/>
</linearGradient>
<linearGradient id="paint3_linear_838_22735" x1="13.729" y1="32.8126" x2="13.729" y2="43.3538" gradientUnits="userSpaceOnUse">
<stop stop-color="#6BA777"/>
<stop offset="1" stop-color="#3E6B47"/>
</linearGradient>
<linearGradient id="paint4_linear_838_22735" x1="37.0239" y1="15.7557" x2="37.0239" y2="31.7469" gradientUnits="userSpaceOnUse">
<stop stop-color="#6BA777"/>
<stop offset="1" stop-color="#3E6B47"/>
</linearGradient>
</defs>
</svg>
