<svg width="44" height="44" viewBox="0 0 44 44" fill="none" xmlns="http://www.w3.org/2000/svg">
<path d="M32.0854 34.5C32.0854 35.3285 29.4138 35.5 28.5854 35.5C27.7569 35.5 27.0854 34.8285 27.0854 34C27.0854 33.1716 27.7569 32.5 28.5854 32.5C29.4138 32.5 32.0854 32.5 32.0854 34.5Z" fill="#FFB13D"/>
<path d="M12.5 19C12.5 19.8284 13 24 10 23C9.17157 23 8.5 19.8284 8.5 19C8.5 18.1716 9.17157 17.5 10 17.5C10.8284 17.5 12.5 17 12.5 19Z" fill="#FFB13D"/>
<path d="M21.6792 26.7535C21.4785 26.9542 21.2116 27.0648 20.9278 27.0648C20.3419 27.0648 19.8652 26.5881 19.8652 26.0022C19.8652 25.6462 19.5766 25.3577 19.2207 25.3577C18.8647 25.3577 18.5762 25.6462 18.5762 26.0022C18.5762 27.2988 19.6311 28.3538 20.9278 28.3538C21.556 28.3538 22.1465 28.1091 22.5906 27.665C22.8423 27.4133 22.8423 27.0052 22.5906 26.7536C22.339 26.5019 21.9309 26.5019 21.6792 26.7535Z" fill="url(#paint0_linear_838_22671)"/>
<path d="M30.2284 31.6309H28.4919C27.4515 31.6309 26.5712 32.3278 26.2921 33.2791H23.5944C22.4098 33.2791 21.2597 32.8698 20.3376 32.1509C22.1339 32.0696 23.8157 31.0917 24.7735 29.5696C25.5506 28.3347 25.6106 26.995 25.6755 25.5877C25.6823 25.4401 25.7763 25.3121 25.9151 25.2614L27.9435 24.5201C28.9709 24.1445 29.3849 22.8545 28.7672 21.9512L25.9063 17.7673C25.1525 16.6617 25.4321 15.4763 25.5959 14.2538H26.3131C29.9333 14.2538 32.916 11.3492 32.9621 7.77886C33.0087 4.16499 30.0127 1.13098 26.4013 1.13098H13.4177C13.3142 0.512268 12.7765 0.0386963 12.1288 0.0386963H9.01815C8.32158 0.0386963 7.75202 0.586342 7.71361 1.27354C5.01105 1.61546 3.07448 2.61193 1.80561 4.31073C-0.166277 6.95073 -0.518857 11.2358 0.727245 17.4082C0.824091 17.8985 0.912171 18.4986 1.00549 19.134C1.45157 22.173 1.98048 27.1012 5.69618 27.8529C5.62357 30.6889 4.86935 33.311 4.10859 36.0107C2.31218 36.2546 0.922741 37.7975 0.922741 39.6598V43.3168C0.922741 43.6727 1.2113 43.9613 1.56723 43.9613H3.65478C4.01071 43.9613 4.29927 43.6727 4.29927 43.3168C4.29927 42.9608 4.01071 42.6723 3.65478 42.6723H2.21172V39.6598C2.21172 38.3394 3.28587 37.2652 4.60631 37.2652H16.6128C17.5265 37.2652 18.3733 37.7971 18.7701 38.6203L20.7225 42.6723H6.67676C6.32082 42.6723 6.03226 42.9608 6.03226 43.3168C6.03226 43.6727 6.32082 43.9613 6.67676 43.9613H21.7485C21.9702 43.9613 22.1763 43.8473 22.2942 43.6596C22.4121 43.4719 22.4253 43.2368 22.329 43.037L19.9312 38.0607C19.4373 37.0359 18.4899 36.305 17.4015 36.0633L17.8852 33.9496C18.0148 33.3729 18.3452 32.8624 18.8407 32.533C20.0718 33.8175 21.8022 34.568 23.5943 34.568H26.2919C26.5711 35.5194 27.4513 36.2163 28.4917 36.2163H30.2283C31.4925 36.2163 32.521 35.1878 32.521 33.9235C32.521 32.6593 31.4927 31.6309 30.2284 31.6309ZM24.8451 18.4989L27.7032 22.6787C27.8565 22.9029 27.7561 23.2161 27.5009 23.3093L25.4726 24.0506C24.8444 24.2801 24.4186 24.8602 24.3879 25.5283C24.3369 26.6332 24.3458 27.7205 23.782 28.7154C23.0332 30.0367 21.5995 30.868 20.0817 30.868C19.7898 30.868 19.5004 30.9052 19.2202 30.9758L13.6692 23.7709C14.6343 23.5243 15.3501 22.6475 15.3501 21.6067V14.7571C15.3501 14.5839 15.3296 14.4156 15.2921 14.2537H24.2953C24.0949 15.7508 23.9088 17.1712 24.8451 18.4989ZM9.37881 22.5514V18.0809C9.37881 17.9965 9.44746 17.9279 9.53185 17.9279H11.615C11.6994 17.9279 11.7681 17.9965 11.7681 18.0809V22.5514H9.37881ZM11.615 16.6389H9.53185C8.73672 16.6389 8.08982 17.2858 8.08982 18.0809V22.5514C7.55593 22.5756 7.08579 22.1486 7.08579 21.6068V14.7572C7.08579 14.2363 7.50952 13.8126 8.03036 13.8126H13.1164C13.6373 13.8126 14.061 14.2363 14.061 14.7572V21.6068C14.061 22.1487 13.5909 22.5756 13.057 22.5514V18.0809C13.057 17.2857 12.4101 16.6389 11.615 16.6389ZM9.89723 9.15429H11.2498V12.5235H9.89723V9.15429ZM8.9989 1.34693H12.1481V3.39572C12.1481 3.75165 12.4367 4.04021 12.7926 4.04021C13.1486 4.04021 13.4371 3.75165 13.4371 3.39572V2.41996H26.4013C29.3016 2.41996 31.7107 4.8625 31.6732 7.76219C31.6361 10.6309 29.2315 12.9647 26.3131 12.9647H14.4477C13.8753 12.5385 13.2172 12.5235 12.5388 12.5235V9.15429C12.9592 9.2043 13.4371 9.00228 13.4371 8.5098V6.44631C13.4371 6.09038 13.1486 5.80182 12.7926 5.80182C12.4367 5.80182 12.1481 6.09038 12.1481 6.44631V7.86531H8.9989V1.34693ZM2.28073 18.9469C2.18508 18.2952 2.09468 17.6799 1.99122 17.1559C0.837582 11.4413 1.12262 7.3791 2.83834 5.08197C3.87692 3.69159 5.43564 2.8858 7.70992 2.57352V8.50989C7.70992 8.9893 8.18882 9.20946 8.60825 9.15438V12.5236C7.21357 12.5236 5.7969 13.1179 5.7969 14.7572V21.6068C5.7969 22.8384 6.79886 23.8403 8.03044 23.8403H8.0979V24.8867C8.0979 25.8513 7.31317 26.636 6.34867 26.636C3.06004 26.6361 2.61543 21.2267 2.28073 18.9469ZM17.8567 31.6577C17.2312 32.1651 16.7948 32.8787 16.6275 33.6675L16.0991 35.9763H5.45755C6.21427 33.2908 6.91659 30.6776 6.98542 27.8573C8.35596 27.5638 9.38688 26.3436 9.38688 24.8867V23.8403H12.0956L18.0219 31.5324C17.9657 31.5727 17.9104 31.614 17.8567 31.6577ZM30.2284 34.9273H28.4919C27.9384 34.9273 27.4881 34.477 27.4881 33.9235C27.4881 33.37 27.9384 32.9198 28.4919 32.9198H30.2284C30.7819 32.9198 31.2322 33.37 31.2322 33.9235C31.2322 34.477 30.7819 34.9273 30.2284 34.9273Z" fill="url(#paint1_linear_838_22671)"/>
<path d="M41.6947 17.5377H33.9791C32.708 17.5377 31.6738 18.5719 31.6738 19.8431V21.9857C31.6738 22.3416 31.9623 22.6301 32.3183 22.6301C32.6742 22.6301 32.9627 22.3416 32.9627 21.9857V19.8431C32.9627 19.2827 33.4187 18.8267 33.9791 18.8267H41.6947C42.2552 18.8267 42.7111 19.2827 42.7111 19.8431V26.6704C42.7111 27.2309 42.2552 27.6868 41.6947 27.6868H29.9925L32.7131 25.578C32.9945 25.3599 33.0458 24.9551 32.8277 24.6739C32.6096 24.3925 32.2047 24.3412 31.9235 24.5593L28.7925 26.9861C27.9758 27.6193 28.4393 28.9758 29.4734 28.9758H41.6947C42.9659 28.9758 44.0001 27.9416 44.0001 26.6704V19.8431C44.0002 18.5719 42.9659 17.5377 41.6947 17.5377Z" fill="url(#paint2_linear_838_22671)"/>
<path d="M35.6738 22.6192H40.0887C40.4447 22.6192 40.7332 22.3306 40.7332 21.9747C40.7332 21.6188 40.4447 21.3302 40.0887 21.3302H35.6738C35.3179 21.3302 35.0293 21.6188 35.0293 21.9747C35.0293 22.3306 35.3179 22.6192 35.6738 22.6192Z" fill="url(#paint3_linear_838_22671)"/>
<path d="M35.6738 25.5215H40.0887C40.4447 25.5215 40.7332 25.233 40.7332 24.877C40.7332 24.5211 40.4447 24.2325 40.0887 24.2325H35.6738C35.3179 24.2325 35.0293 24.5211 35.0293 24.877C35.0293 25.233 35.3179 25.5215 35.6738 25.5215Z" fill="url(#paint4_linear_838_22671)"/>
<defs>
<linearGradient id="paint0_linear_838_22671" x1="20.6778" y1="25.3577" x2="20.6778" y2="28.3538" gradientUnits="userSpaceOnUse">
<stop stop-color="#6BA777"/>
<stop offset="1" stop-color="#3E6B47"/>
</linearGradient>
<linearGradient id="paint1_linear_838_22671" x1="16.4813" y1="0.0386963" x2="16.4813" y2="43.9613" gradientUnits="userSpaceOnUse">
<stop stop-color="#6BA777"/>
<stop offset="1" stop-color="#3E6B47"/>
</linearGradient>
<linearGradient id="paint2_linear_838_22671" x1="36.1876" y1="17.5377" x2="36.1876" y2="28.9758" gradientUnits="userSpaceOnUse">
<stop stop-color="#6BA777"/>
<stop offset="1" stop-color="#3E6B47"/>
</linearGradient>
<linearGradient id="paint3_linear_838_22671" x1="37.8813" y1="21.3302" x2="37.8813" y2="22.6192" gradientUnits="userSpaceOnUse">
<stop stop-color="#6BA777"/>
<stop offset="1" stop-color="#3E6B47"/>
</linearGradient>
<linearGradient id="paint4_linear_838_22671" x1="37.8813" y1="24.2325" x2="37.8813" y2="25.5215" gradientUnits="userSpaceOnUse">
<stop stop-color="#6BA777"/>
<stop offset="1" stop-color="#3E6B47"/>
</linearGradient>
</defs>
</svg>
