<svg width="39" height="30" viewBox="0 0 39 30" fill="none" xmlns="http://www.w3.org/2000/svg">
<path d="M13.4498 12.9548L11.0883 12.5161C10.4361 12.395 10.0057 11.7681 10.1269 11.116L11.0043 6.39316C11.1254 5.7411 11.7522 5.31069 12.4043 5.43181L37.7897 10.1477L33.017 15.6809C32.5985 16.166 31.9538 16.3923 31.3239 16.2753L15.8112 13.3935" stroke="#2E5235" stroke-width="1.1236" stroke-linecap="round" stroke-linejoin="round"/>
<path d="M11.6792 12.6258L11.4599 13.8064C11.3387 14.4586 11.7692 15.0854 12.4212 15.2065L33.6741 19.1548C34.3262 19.2759 34.953 18.8455 35.0742 18.1933L36.1709 12.2898" stroke="#2E5235" stroke-width="1.1236" stroke-linecap="round" stroke-linejoin="round"/>
<path d="M16.1738 16.1071V18.3713" stroke="#2E5235" stroke-width="1.1236" stroke-linecap="round" stroke-linejoin="round"/>
<path d="M13.7715 18.3087V15.6192" stroke="#2E5235" stroke-width="1.1236" stroke-linecap="round" stroke-linejoin="round"/>
<path fill-rule="evenodd" clip-rule="evenodd" d="M16.7737 19.8224C16.7737 20.8173 15.9672 21.6237 14.9723 21.6237C13.9774 21.6237 13.1709 20.8173 13.1709 19.8224C13.1709 18.8275 13.9774 18.021 14.9723 18.021C15.9672 18.021 16.7737 18.8275 16.7737 19.8224Z" stroke="#2E5235" stroke-width="1.1236" stroke-linecap="round" stroke-linejoin="round"/>
<path d="M2.96289 25.2265H12.5702C13.8967 25.2265 14.9721 24.1512 14.9721 22.8247V21.6238H2.96289" stroke="#2E5235" stroke-width="1.1236" stroke-linecap="round" stroke-linejoin="round"/>
<path fill-rule="evenodd" clip-rule="evenodd" d="M1.76242 29.4297H0.561523L0.561523 19.8224H1.76242C2.42564 19.8224 2.96332 20.3601 2.96332 21.0233L2.96332 28.2288C2.96332 28.8921 2.42564 29.4297 1.76242 29.4297Z" stroke="#2E5235" stroke-width="1.1236" stroke-linecap="round" stroke-linejoin="round"/>
<path d="M8.36719 6.6123C8.36719 4.62257 9.98022 3.00953 11.97 3.00953" stroke="#2E5235" stroke-width="1.1236" stroke-linecap="round" stroke-linejoin="round"/>
<path d="M5.96582 6.6123C5.96582 3.29605 8.65421 0.60766 11.9705 0.60766" stroke="#2E5235" stroke-width="1.1236" stroke-linecap="round" stroke-linejoin="round"/>
</svg>
