<svg width="39" height="30" viewBox="0 0 39 30" fill="none" xmlns="http://www.w3.org/2000/svg">
<path d="M24.9208 12.9548L27.2823 12.5161C27.9345 12.395 28.3649 11.7681 28.2438 11.116L27.3663 6.39316C27.2452 5.7411 26.6184 5.31069 25.9663 5.43181L0.580907 10.1477L5.35364 15.6809C5.77214 16.166 6.41678 16.3923 7.04667 16.2753L22.5594 13.3935" stroke="#2E5235" stroke-width="1.1236" stroke-linecap="round" stroke-linejoin="round"/>
<path d="M26.6919 12.6258L26.9112 13.8064C27.0324 14.4586 26.6019 15.0854 25.9499 15.2065L4.697 19.1548C4.04486 19.2759 3.41805 18.8455 3.29692 18.1933L2.20022 12.2898" stroke="#2E5235" stroke-width="1.1236" stroke-linecap="round" stroke-linejoin="round"/>
<path d="M22.1973 16.1071V18.3713" stroke="#2E5235" stroke-width="1.1236" stroke-linecap="round" stroke-linejoin="round"/>
<path d="M24.5991 18.3087V15.6192" stroke="#2E5235" stroke-width="1.1236" stroke-linecap="round" stroke-linejoin="round"/>
<path fill-rule="evenodd" clip-rule="evenodd" d="M21.5969 19.8224C21.5969 20.8173 22.4035 21.6237 23.3983 21.6237C24.3932 21.6237 25.1997 20.8173 25.1997 19.8224C25.1997 18.8275 24.3932 18.021 23.3983 18.021C22.4035 18.021 21.5969 18.8275 21.5969 19.8224Z" stroke="#2E5235" stroke-width="1.1236" stroke-linecap="round" stroke-linejoin="round"/>
<path d="M35.4072 25.2265H25.7999C24.4734 25.2265 23.398 24.1512 23.398 22.8247V21.6238H35.4072" stroke="#2E5235" stroke-width="1.1236" stroke-linecap="round" stroke-linejoin="round"/>
<path fill-rule="evenodd" clip-rule="evenodd" d="M36.6082 29.4297H37.8091V19.8224H36.6082C35.945 19.8224 35.4073 20.3601 35.4073 21.0233V28.2288C35.4073 28.8921 35.945 29.4297 36.6082 29.4297Z" stroke="#2E5235" stroke-width="1.1236" stroke-linecap="round" stroke-linejoin="round"/>
<path d="M30.0034 6.6123C30.0034 4.62257 28.3904 3.00953 26.4006 3.00953" stroke="#2E5235" stroke-width="1.1236" stroke-linecap="round" stroke-linejoin="round"/>
<path d="M32.4048 6.6123C32.4048 3.29605 29.7164 0.60766 26.4001 0.60766" stroke="#2E5235" stroke-width="1.1236" stroke-linecap="round" stroke-linejoin="round"/>
</svg>
