<svg width="29" height="29" viewBox="0 0 29 29" fill="none" xmlns="http://www.w3.org/2000/svg">
<path d="M25.8542 4.11541L24.6233 2.88447C24.2538 2.51498 23.7625 2.31152 23.2399 2.31152C22.7174 2.31152 22.2261 2.51498 21.8566 2.88447L17.5411 7.19998C17.3328 7.40827 17.3328 7.74602 17.5411 7.95426C17.7494 8.16255 18.0871 8.16255 18.2954 7.95426L20.5831 5.66642L23.0722 8.15548L9.82332 21.4044L7.33426 18.9153L17.0383 9.21129C17.2466 9.003 17.2466 8.66536 17.0383 8.45702C16.83 8.24867 16.4922 8.24872 16.284 8.45702L6.20293 18.5382C6.14791 18.5932 6.10566 18.6596 6.07897 18.7326L4.2169 23.8379C4.14579 24.0328 4.19412 24.2512 4.34087 24.3978C4.4427 24.4996 4.57901 24.5541 4.71809 24.5541C4.77941 24.5541 4.84118 24.5435 4.90077 24.5218L10.0062 22.6598C10.0792 22.6331 10.1456 22.5909 10.2005 22.5358L25.8543 6.88203C26.617 6.11922 26.617 4.87811 25.8542 4.11541ZM5.61166 23.127L6.79442 19.8841L8.85455 21.9442L5.61166 23.127ZM25.1 6.1277L23.8266 7.4011L21.3375 4.91215L22.6109 3.63875C22.779 3.47069 23.0023 3.37821 23.2399 3.37821C23.4775 3.37821 23.7009 3.47075 23.8689 3.63875L25.0999 4.86968C25.268 5.03774 25.3605 5.26109 25.3605 5.49869C25.3605 5.73629 25.268 5.95964 25.1 6.1277Z" fill="white"/>
<path d="M28.3173 27.192L17.8434 16.7175C17.6351 16.5092 17.2974 16.5092 17.0891 16.7175C16.8808 16.9257 16.8808 17.2634 17.0891 17.4718L26.6525 27.0358H23.4445V26.5331C23.4445 26.2385 23.2057 25.9997 22.9112 25.9997C22.6166 25.9997 22.3778 26.2385 22.3778 26.5331V27.0358H20.3036V26.5331C20.3036 26.2385 20.0648 25.9997 19.7702 25.9997C19.4756 25.9997 19.2368 26.2385 19.2368 26.5331V27.0358H17.1626V26.5331C17.1626 26.2385 16.9238 25.9997 16.6293 25.9997C16.3347 25.9997 16.0959 26.2385 16.0959 26.5331V27.0358H14.0217V26.5331C14.0217 26.2385 13.7829 25.9997 13.4884 25.9997C13.1938 25.9997 12.955 26.2385 12.955 26.5331V27.0358H10.8808V26.5331C10.8808 26.2385 10.642 25.9997 10.3474 25.9997C10.0528 25.9997 9.81404 26.2385 9.81404 26.5331V27.0358H7.73988V26.5331C7.73988 26.2385 7.50109 25.9997 7.20651 25.9997C6.91194 25.9997 6.67314 26.2385 6.67314 26.5331V27.0358H4.59893V26.5331C4.59893 26.2385 4.36014 25.9997 4.06556 25.9997C3.77098 25.9997 3.53219 26.2385 3.53219 26.5331V27.0358H1.70346V2.08617L11.365 11.7477C11.5733 11.956 11.911 11.956 12.1192 11.7477C12.3275 11.5394 12.3275 11.2018 12.1192 10.9935L1.5472 0.421362C1.39474 0.268799 1.16525 0.223237 0.965983 0.305717C0.766663 0.388305 0.636719 0.582786 0.636719 0.798526V27.5692C0.636719 27.8638 0.875512 28.1026 1.17009 28.1026H27.9401C28.1558 28.1026 28.3502 27.9726 28.4328 27.7733C28.5154 27.574 28.4697 27.3446 28.3173 27.192Z" fill="white"/>
<path d="M9.25267 13.8593L5.60091 10.2075C5.44829 10.0549 5.21896 10.0094 5.01969 10.0919C4.82037 10.1744 4.69043 10.3689 4.69043 10.5846V17.928C4.69043 18.2226 4.92922 18.4614 5.2238 18.4614C5.51838 18.4614 5.75717 18.2226 5.75717 17.928V11.8723L8.49845 14.6135C8.70674 14.8218 9.04449 14.8218 9.25272 14.6135C9.46096 14.4052 9.46096 14.0676 9.25267 13.8593Z" fill="white"/>
<path d="M18.5306 23.1385L14.9763 19.5842C14.768 19.3759 14.4302 19.3759 14.222 19.5842C14.0137 19.7925 14.0137 20.1301 14.222 20.3385L16.8659 22.9823H10.3742C10.0796 22.9823 9.84082 23.2211 9.84082 23.5157C9.84082 23.8103 10.0796 24.0491 10.3742 24.0491H18.1535C18.3692 24.0491 18.5637 23.9191 18.6463 23.7198C18.7288 23.5205 18.6831 23.291 18.5306 23.1385Z" fill="white"/>
</svg>
