<svg width="28" height="28" viewBox="0 0 28 28" fill="none" xmlns="http://www.w3.org/2000/svg">
<path d="M14.0003 5.10229C13.2335 5.10229 12.4955 5.33297 11.8661 5.76937C11.6801 5.89838 11.633 6.15492 11.7611 6.34239C11.8891 6.52986 12.1438 6.57722 12.3298 6.44826C12.8222 6.10685 13.3998 5.92638 14.0003 5.92638C15.6275 5.92638 16.9512 7.2601 16.9512 8.89947C16.9512 10.5388 15.6275 11.8726 14.0003 11.8726C12.3731 11.8726 11.0494 10.5388 11.0494 8.89947C11.0494 8.41587 11.1608 7.95485 11.3806 7.52927C11.4848 7.32737 11.407 7.07859 11.2066 6.97359C11.0061 6.86865 10.7593 6.94701 10.6551 7.14892C10.378 7.68551 10.2314 8.29085 10.2314 8.89947C10.2315 10.9933 11.9222 12.6967 14.0003 12.6967C16.0784 12.6967 17.7691 10.9933 17.7691 8.89947C17.7691 6.8057 16.0784 5.10229 14.0003 5.10229Z" fill="#3E6B47"/>
<path d="M27.9686 27.4297L23.9324 17.6589C23.869 17.5053 23.7201 17.4052 23.5549 17.4052H19.5328C20.3151 16.3389 20.9663 15.2768 21.4748 14.234C22.3761 12.3859 22.833 10.5911 22.833 8.89941C22.8329 3.99224 18.8705 0 14 0C9.12945 0 5.16701 3.99224 5.16701 8.89935C5.16701 10.5911 5.62392 12.3859 6.52517 14.234C7.03366 15.2768 7.68482 16.3389 8.46718 17.4052H4.44508C4.27992 17.4052 4.13096 17.5053 4.06757 17.6589L1.31723 24.3169C1.23044 24.527 1.3291 24.7681 1.53762 24.8555C1.58903 24.8771 1.64218 24.8873 1.69457 24.8873C1.85481 24.8873 2.00689 24.7918 2.07225 24.6335L2.46468 23.6835H5.2486L3.80595 27.1759H1.02208L1.44028 26.1635C1.52707 25.9534 1.42841 25.7122 1.21989 25.6248C1.01125 25.5373 0.77194 25.6368 0.685206 25.8468L0.0314169 27.4297C-0.0211378 27.5568 -0.00713778 27.7021 0.0687685 27.8166C0.144565 27.9311 0.272206 28 0.408925 28H27.591C27.7277 28 27.8554 27.9311 27.9312 27.8166C28.0071 27.7021 28.0211 27.5568 27.9686 27.4297ZM5.98492 8.89935C5.98492 4.44659 9.58045 0.824031 14 0.824031C18.4195 0.824031 22.015 4.44664 22.015 8.89935C22.015 10.7665 21.3711 13.7503 18.3923 17.5526C18.3892 17.5562 18.3866 17.5599 18.3837 17.5636C18.2316 17.7576 18.0735 17.9536 17.909 18.1519C16.2721 20.124 14.6156 21.5641 13.9999 22.0758C13.386 21.5659 11.7374 20.133 10.1016 18.1646C9.93297 17.9617 9.7712 17.761 9.61551 17.5625C9.61299 17.5593 9.61064 17.5561 9.60802 17.5529C6.6293 13.7509 5.98492 10.7673 5.98492 8.89935ZM4.71781 18.2293H7.50178L6.48635 20.6874H3.70242L4.71781 18.2293ZM7.10918 27.176L9.66533 20.9882L16.9395 27.176H7.10918ZM18.2074 27.176L9.76623 19.9955C9.66659 19.9107 9.53271 19.8789 9.40617 19.9099C9.27951 19.9408 9.17495 20.0307 9.12491 20.152L6.22335 27.1759H4.69189L6.23932 23.4297C6.29188 23.3026 6.27788 23.1574 6.20197 23.0428C6.12617 22.9282 5.99848 22.8594 5.86176 22.8594H2.80522L3.36205 21.5113H6.75913C6.92428 21.5113 7.07325 21.4112 7.13663 21.2576L8.38767 18.2292H9.0974C9.22061 18.384 9.34585 18.5388 9.47442 18.6936C11.5845 21.2327 13.6623 22.8629 13.7497 22.9311C13.8234 22.9885 13.9117 23.0172 14 23.0172C14.0882 23.0172 14.1766 22.9885 14.2502 22.9311C14.2983 22.8936 14.9479 22.3837 15.873 21.5114H20.504C20.7298 21.5114 20.9129 21.3269 20.9129 21.0994C20.9129 20.8718 20.7298 20.6874 20.504 20.6874H16.7158C17.2828 20.113 17.9025 19.4433 18.5256 18.6936C18.6542 18.5388 18.7794 18.3841 18.9026 18.2293H23.2821L24.2975 20.6874H22.1397C21.9139 20.6874 21.7308 20.8718 21.7308 21.0994C21.7308 21.3269 21.9138 21.5114 22.1397 21.5114H24.6379L25.1947 22.8594H16.769C16.5983 22.8594 16.4457 22.9662 16.3859 23.1273C16.3262 23.2884 16.372 23.4699 16.5009 23.5826L20.6098 27.176H18.2074ZM21.8575 27.176L17.864 23.6835H25.5352L26.9779 27.176H21.8575Z" fill="#3E6B47"/>
</svg>
