<svg width="32" height="29" viewBox="0 0 32 29" fill="none" xmlns="http://www.w3.org/2000/svg">
<path d="M10.2845 11.118C10.3219 11.1167 10.359 11.111 10.395 11.1008C11.8482 10.6913 12.1159 9.82492 12.1381 8.15722L12.1393 8.12998C12.1789 7.20453 12.2239 6.15566 11.5782 5.51437C11.1945 5.13335 10.623 4.96238 9.88005 5.00691C9.11148 5.05263 8.20686 5.374 7.51948 5.84546C6.24742 6.71655 5.51161 8.18655 5.24711 9.27155C4.81742 11.0305 4.9538 13.3971 5.61186 15.6033C6.23742 17.8141 7.39911 19.9225 8.7198 21.2436C9.52955 22.0536 10.9504 22.9789 12.5093 23.1467C12.6827 23.1655 12.8605 23.1747 13.0397 23.1747C13.7367 23.1747 14.4539 23.0361 15.0034 22.7862C15.6963 22.4709 16.1016 22.0685 16.2425 21.556C16.4745 20.7126 15.9014 19.8777 15.3472 19.0703L15.2802 18.9726C14.3709 17.5587 13.6807 16.9406 12.2259 17.2503C12.1889 17.2582 12.153 17.2705 12.1191 17.2871C12.1184 17.2871 12.1177 17.2871 12.117 17.2871C11.8744 17.2871 11.0421 16.6296 10.5092 15.3383C10.3922 15.0557 10.2854 14.7499 10.1919 14.4303C10.0987 14.1096 10.0255 13.7962 9.9743 13.4977C9.74448 12.1767 10.0869 11.2326 10.2845 11.118ZM9.52036 10.5558C9.02055 11.1545 8.83186 12.4024 9.05067 13.6601C9.1078 13.9929 9.18905 14.3416 9.29255 14.6974C9.39586 15.0505 9.51417 15.3888 9.64398 15.7024C10.1379 16.8995 10.9742 17.8862 11.725 18.1576C12.0525 18.276 12.3022 18.2353 12.4698 18.1655C13.2375 18.0084 13.6037 18.1021 14.4975 19.4932C14.4999 19.4971 14.5025 19.5009 14.5051 19.5047L14.5766 19.6089C15.0079 20.2371 15.4538 20.8868 15.3393 21.3032C15.2782 21.525 15.0356 21.7339 14.6181 21.9239C14.0706 22.1729 13.3008 22.2811 12.6092 22.2062C11.2896 22.0641 10.0449 21.237 9.37992 20.5719C8.16767 19.3592 7.0958 17.4036 6.51261 15.3406C6.51198 15.3383 6.51129 15.3361 6.51067 15.3339C5.89811 13.282 5.76605 11.1003 6.15755 9.49769C6.37023 8.62483 6.99248 7.34957 8.0463 6.62801C8.59367 6.25259 9.33517 5.98691 9.93536 5.95121C9.99586 5.94762 10.054 5.94585 10.11 5.94585C10.4859 5.94585 10.7582 6.02727 10.9206 6.18858C11.2694 6.53492 11.2355 7.32504 11.2027 8.08918L11.2013 8.12355C11.2011 8.12828 11.201 8.13301 11.2009 8.1378C11.1805 9.72692 10.9362 9.95982 10.1923 10.1757C10.0023 10.1924 9.75242 10.2779 9.52036 10.5558Z" fill="#3E6B47"/>
<path d="M27.6801 4.85132H21.3516C21.0926 4.85132 20.8828 5.06308 20.8828 5.32429C20.8828 5.5855 21.0926 5.79726 21.3516 5.79726H27.6801C27.9391 5.79726 28.1489 5.5855 28.1489 5.32429C28.1489 5.06308 27.939 4.85132 27.6801 4.85132Z" fill="#3E6B47"/>
<path d="M27.6801 7.34888H21.3516C21.0926 7.34888 20.8828 7.56064 20.8828 7.82185C20.8828 8.08306 21.0926 8.29482 21.3516 8.29482H27.6801C27.9391 8.29482 28.1489 8.08306 28.1489 7.82185C28.1489 7.56064 27.939 7.34888 27.6801 7.34888Z" fill="#3E6B47"/>
<path d="M32 6.74284C32 5.38679 31.5217 4.08492 30.6169 2.97797C30.4521 2.77642 30.1567 2.74786 29.9569 2.91403C29.7572 3.0802 29.7289 3.3783 29.8936 3.57985C30.6583 4.51539 31.0625 5.60909 31.0625 6.74284C31.0625 9.86049 28.0075 12.3968 24.2524 12.3968C23.5086 12.3968 22.7778 12.2975 22.0805 12.1017C21.938 12.0616 21.7849 12.0919 21.6677 12.1835L20.0497 13.4488L20.2585 11.6861C20.2979 11.496 20.2179 11.2989 20.054 11.1921C18.3942 10.1103 17.4423 8.48855 17.4423 6.74277C17.4423 3.62513 20.4973 1.08879 24.2524 1.08879C25.7939 1.08879 27.2486 1.50709 28.4592 2.29853C28.6764 2.44055 28.9667 2.37799 29.1075 2.15878C29.2483 1.93951 29.1863 1.64671 28.969 1.50463C27.6063 0.613739 25.9753 0.142847 24.2524 0.142847C22.5484 0.142847 20.9714 0.614306 19.6908 1.41161C17.8639 0.558559 15.9089 0.125 13.8751 0.125C10.1267 0.125 6.61525 1.60875 3.98762 4.30293C3.80606 4.48915 3.80844 4.78858 3.99294 4.97178C4.08425 5.06246 4.203 5.10761 4.32169 5.10761C4.44288 5.10761 4.56406 5.06044 4.65581 4.96641C7.10581 2.45442 10.3799 1.07095 13.8751 1.07095C15.5909 1.07095 17.2463 1.40127 18.8071 2.05284C17.3864 3.2499 16.5047 4.91023 16.5047 6.74284C16.5047 8.72598 17.5191 10.5612 19.2986 11.8193L19.0387 14.0133C19.0366 14.0319 19.0354 14.0506 19.0354 14.0694V14.1807C19.0354 14.4487 19.1714 14.6777 19.3902 14.7786C19.4384 14.8008 19.5222 14.8302 19.6293 14.8302C19.7605 14.8302 19.9264 14.7861 20.1041 14.6308C20.1401 14.5988 20.1627 14.578 20.1905 14.5524C20.2196 14.5256 20.255 14.493 20.3234 14.4317L22.0591 13.0742C22.7681 13.2525 23.5047 13.3428 24.2524 13.3428C25.1304 13.3428 25.9747 13.2175 26.7622 12.9872C26.7947 13.3662 26.8126 13.7469 26.8126 14.1251C26.8126 21.3231 21.0089 27.1791 13.8751 27.1791C6.74125 27.1791 0.9375 21.323 0.9375 14.125C0.9375 11.392 1.76469 8.7758 3.32962 6.55939C3.47981 6.34661 3.43069 6.05129 3.21981 5.89975C3.009 5.74814 2.71631 5.79777 2.56606 6.01055C0.887312 8.38809 0 11.194 0 14.125C0 17.8644 1.44313 21.38 4.0635 24.0243C6.68406 26.6687 10.1686 28.125 13.8751 28.125C21.5258 28.125 27.7501 21.8446 27.7501 14.125C27.7501 13.639 27.7244 13.1488 27.6743 12.6629C30.2348 11.5846 32 9.33624 32 6.74284Z" fill="#3E6B47"/>
</svg>
