<svg width="28" height="28" viewBox="0 0 28 28" fill="none" xmlns="http://www.w3.org/2000/svg">
<path d="M24.8997 0.0546875H23.2642C23.0343 0.0546875 22.8483 0.240967 22.8483 0.470612C22.8483 0.700256 23.0343 0.886322 23.2642 0.886322H24.8997C26.1156 0.886322 27.1109 1.84784 27.1656 3.05054L16.8749 11.6185C15.2093 13.006 12.7909 13.006 11.1246 11.6183L0.834412 3.05011C0.889313 1.84784 1.88458 0.886322 3.10031 0.886322H21.6007C21.8304 0.886322 22.0166 0.700256 22.0166 0.470612C22.0166 0.240967 21.8304 0.0546875 21.6007 0.0546875H3.10031C1.3909 0.0546875 0 1.44559 0 3.155V13.0754C0 13.3051 0.186279 13.4911 0.415924 13.4911C0.645569 13.4911 0.831635 13.3051 0.831635 13.0754V4.13019L10.5925 12.2575C11.5799 13.0797 12.7898 13.4907 14.0002 13.4907C15.21 13.4907 16.4203 13.0797 17.4073 12.2575L27.1684 4.1304V17.9742C27.1684 19.1831 26.1848 20.1667 24.9757 20.1667H3.02426C1.81516 20.1667 0.831635 19.1831 0.831635 17.9742V14.7389C0.831635 14.5093 0.645569 14.323 0.415924 14.323C0.186279 14.323 0 14.5093 0 14.7389V17.9742C0 19.6418 1.35672 20.9983 3.02426 20.9983H24.9757C26.6433 20.9983 28 19.6418 28 17.9742V3.155C28 1.44559 26.6091 0.0546875 24.8997 0.0546875Z" fill="#3E6B47"/>
<path d="M24.7864 18.7935C24.8642 18.8582 24.9586 18.8896 25.0524 18.8896C25.1716 18.8896 25.2899 18.8388 25.3722 18.7399C25.5189 18.5634 25.495 18.3011 25.3186 18.1543L18.6879 12.6337C18.5115 12.4867 18.2491 12.5106 18.1022 12.6871C17.9552 12.8635 17.9791 13.1259 18.1558 13.2728L24.7864 18.7935Z" fill="#3E6B47"/>
<path d="M2.94831 18.8896C3.04209 18.8896 3.13652 18.8582 3.21406 18.7934L9.84492 13.2726C10.0214 13.1258 10.0453 12.8635 9.89832 12.687C9.75157 12.5104 9.48924 12.4864 9.31278 12.6334L2.68214 18.1543C2.50547 18.3012 2.48155 18.5634 2.62852 18.7398C2.71076 18.8387 2.82911 18.8896 2.94831 18.8896Z" fill="#3E6B47"/>
</svg>
