<svg width="108" height="98" viewBox="0 0 108 98" fill="none" xmlns="http://www.w3.org/2000/svg">
<path d="M73.2618 4.37207C86.6708 10.6244 96.4197 22.5622 99.9926 36.8256C103.639 51.3823 101.392 67.1504 91.9152 78.8383C82.5179 90.4279 67.5295 95.3052 52.5356 95.3536C37.5447 95.4019 22.8076 90.3884 13.0579 79.0929C2.92649 67.3551 -1.96602 51.5009 1.72696 36.4891C5.34739 21.7722 17.4186 11.0573 31.3317 4.81071C44.7289 -1.20424 59.9532 -1.8334 73.2618 4.37207Z" fill="#F9F9F9"/>
<path opacity="0.1" d="M105.231 41.5566C108.975 52.9733 107.33 65.3741 100.884 75.404C94.3065 85.6401 83.744 93.055 71.5814 93.9205C59.5213 94.7788 48.3255 88.5995 39.9798 79.7383C31.6357 70.879 26.4231 59.3621 27.6887 47.3171C29.0038 34.8005 35.657 23.1059 46.5749 16.968C57.2783 10.9506 70.305 12.1625 81.7133 16.9448C92.6986 21.5498 101.515 30.2254 105.231 41.5566Z" fill="#5BA763"/>
<g clip-path="url(#clip0_820_6880)">
<path d="M87.4746 47.1231C88.0409 47.1231 88.5 46.664 88.5 46.0977C88.5 45.5314 88.0409 45.0723 87.4746 45.0723H84.1162V42.7393H87.4746C88.0409 42.7393 88.5 42.2802 88.5 41.7139C88.5 41.1476 88.0409 40.6885 87.4746 40.6885H84.1162V36.458C84.7874 35.868 85.2122 35.004 85.2122 34.0422C85.2122 32.2682 83.7689 30.825 81.9949 30.825H79.803C78.029 30.825 76.5858 32.2683 76.5858 34.0422C76.5858 35.004 77.0106 35.868 77.6817 36.458V40.6885H56.7173V36.458C57.3884 35.868 57.8132 35.004 57.8132 34.0422C57.8132 32.2682 56.3699 30.825 54.5959 30.825H52.4041C50.63 30.825 49.1868 32.2683 49.1868 34.0422C49.1868 35.004 49.6116 35.868 50.2827 36.458V40.6885H29.3184V36.458C29.9896 35.868 30.4144 35.004 30.4144 34.0422C30.4144 32.2682 28.971 30.825 27.1971 30.825H25.0052C23.2312 30.825 21.7879 32.2683 21.7879 34.0422C21.7879 35.004 22.2127 35.868 22.8839 36.458V40.6885H19.5254C18.9591 40.6885 18.5 41.1476 18.5 41.7139C18.5 42.2802 18.9591 42.7393 19.5254 42.7393H22.8837V45.0723H19.5254C18.9591 45.0723 18.5 45.5314 18.5 46.0977C18.5 46.664 18.9591 47.1231 19.5254 47.1231H22.8837V76.855H19.5254C18.9591 76.855 18.5 77.3141 18.5 77.8804C18.5 78.4467 18.9591 78.9058 19.5254 78.9058H87.4746C88.0409 78.9058 88.5 78.4467 88.5 77.8804C88.5 77.3141 88.0409 76.855 87.4746 76.855H84.1162V47.1231H87.4746ZM27.2676 76.855H24.9345V37.2578C24.958 37.2584 24.9814 37.2596 25.0051 37.2596H27.197C27.2206 37.2596 27.244 37.2584 27.2676 37.2578V76.855ZM27.1971 35.2086H25.0052C24.362 35.2086 23.8387 34.6852 23.8387 34.0421C23.8387 33.399 24.362 32.8756 25.0052 32.8756H27.1971C27.8404 32.8756 28.3636 33.399 28.3636 34.0421C28.3636 34.6852 27.8402 35.2086 27.1971 35.2086ZM42.611 76.855H36.9901V73.4966C36.9901 72.9304 36.531 72.4713 35.9647 72.4713C35.3984 72.4713 34.9393 72.9304 34.9393 73.4966V76.855H29.3184V47.1231H34.9393V69.1125C34.9393 69.6788 35.3984 70.1379 35.9647 70.1379C36.531 70.1379 36.9901 69.6788 36.9901 69.1125V47.1231H42.611V76.855ZM50.2827 76.855H44.6618V47.1231H50.2827V76.855ZM50.2827 45.0721H29.3184V42.7392H50.2827V45.0721ZM51.2376 34.0421C51.2376 33.399 51.7608 32.8756 52.4041 32.8756H54.5959C55.2392 32.8756 55.7624 33.399 55.7624 34.0421C55.7624 34.6852 55.2391 35.2086 54.5959 35.2086H52.4041C51.7608 35.2086 51.2376 34.6852 51.2376 34.0421ZM62.3382 76.855H56.7173V52.6737C56.7173 52.1074 56.2582 51.6483 55.6919 51.6483C55.1256 51.6483 54.6665 52.1074 54.6665 52.6737V76.855H52.3335V37.2578C52.357 37.2584 52.3804 37.2596 52.4041 37.2596H54.5959C54.6196 37.2596 54.643 37.2584 54.6665 37.2578V48.2897C54.6665 48.856 55.1256 49.3151 55.6919 49.3151C56.2582 49.3151 56.7173 48.856 56.7173 48.2897V47.1232H62.3382V76.855ZM77.6816 76.855H72.0607V64.7287C72.0607 64.1624 71.6016 63.7033 71.0353 63.7033C70.469 63.7033 70.0099 64.1624 70.0099 64.7287V76.855H64.389V47.1231H70.0099V60.3447C70.0099 60.911 70.469 61.3701 71.0353 61.3701C71.6016 61.3701 72.0607 60.911 72.0607 60.3447V47.1231H77.6816V76.855ZM77.6816 45.0721H56.7173V42.7392H77.6816V45.0721ZM82.0653 76.855H79.7324V37.2578C79.7559 37.2584 79.7793 37.2596 79.8029 37.2596H81.9948C82.0184 37.2596 82.0418 37.2584 82.0653 37.2578V76.855ZM81.9948 35.2086H79.8029C79.1596 35.2086 78.6364 34.6852 78.6364 34.0421C78.6364 33.399 79.1598 32.8756 79.8029 32.8756H81.9948C82.638 32.8756 83.1613 33.399 83.1613 34.0421C83.1613 34.6852 82.6379 35.2086 81.9948 35.2086Z" fill="url(#paint0_linear_820_6880)"/>
</g>
<defs>
<linearGradient id="paint0_linear_820_6880" x1="53.5" y1="30.825" x2="53.5" y2="78.9058" gradientUnits="userSpaceOnUse">
<stop stop-color="#6BA777"/>
<stop offset="1" stop-color="#3E6B47"/>
</linearGradient>
<clipPath id="clip0_820_6880">
<rect width="70" height="70" fill="white" transform="translate(18.5 19.8654)"/>
</clipPath>
</defs>
</svg>
