<svg width="108" height="98" viewBox="0 0 108 98" fill="none" xmlns="http://www.w3.org/2000/svg">
<path d="M73.2618 4.37207C86.6708 10.6244 96.4197 22.5622 99.9926 36.8256C103.639 51.3823 101.392 67.1504 91.9152 78.8383C82.5179 90.4279 67.5295 95.3052 52.5356 95.3536C37.5447 95.4019 22.8076 90.3884 13.0579 79.0929C2.92649 67.3551 -1.96602 51.5009 1.72696 36.4891C5.34739 21.7722 17.4186 11.0573 31.3317 4.81071C44.7289 -1.20424 59.9532 -1.8334 73.2618 4.37207Z" fill="#F9F9F9"/>
<path opacity="0.1" d="M105.231 41.5566C108.975 52.9733 107.33 65.3741 100.884 75.404C94.3065 85.6401 83.744 93.055 71.5814 93.9205C59.5213 94.7788 48.3255 88.5995 39.9798 79.7383C31.6357 70.879 26.4231 59.3621 27.6887 47.3171C29.0038 34.8005 35.657 23.1059 46.5749 16.968C57.2783 10.9506 70.305 12.1625 81.7133 16.9448C92.6986 21.5498 101.515 30.2254 105.231 41.5566Z" fill="#5BA763"/>
<g clip-path="url(#clip0_820_16251)">
<path d="M88.5 30.6107C88.5 28.0684 86.4317 26 83.8893 26C81.3469 26 79.2786 28.0683 79.2786 30.6107C79.2786 31.8659 79.7834 33.0049 80.5997 33.8371V53.1445H78.5827C77.6257 53.1445 76.8472 53.9232 76.8472 54.8802V57.1901C76.8472 58.1471 77.6257 58.9257 78.5827 58.9257H80.5997V60.6497H78.5827C77.6257 60.6497 76.8472 61.4283 76.8472 62.3854V64.6952C76.8472 65.6523 77.6257 66.4309 78.5827 66.4309H80.5997V68.5588C80.5997 69.1251 81.0587 69.5842 81.6251 69.5842C82.1915 69.5842 82.6505 69.1251 82.6505 68.5588V35.0511C83.0449 35.1612 83.4601 35.2214 83.8893 35.2214C84.3185 35.2214 84.7335 35.1612 85.1281 35.0511V77.4901H82.6506V73.1148C82.6506 72.5485 82.1917 72.0894 81.6252 72.0894C81.0588 72.0894 80.5998 72.5485 80.5998 73.1148V77.8052C80.5998 78.7622 81.3785 79.5408 82.3355 79.5408H85.4431C86.4001 79.5408 87.1788 78.7622 87.1788 77.8052V33.8373C87.9952 33.0049 88.5 31.8659 88.5 30.6107ZM78.8981 56.8749V55.1953H80.5998V56.8749H78.8981ZM78.8981 64.3801V62.7005H80.5998V64.3801H78.8981ZM81.3295 30.6107C81.3295 29.1992 82.4778 28.0508 83.8894 28.0508C85.3011 28.0508 86.4492 29.1992 86.4492 30.6107C86.4492 32.0223 85.3009 33.1706 83.8893 33.1706C82.4777 33.1706 81.3295 32.0223 81.3295 30.6107Z" fill="url(#paint0_linear_820_16251)"/>
<path d="M70.877 36.3793C71.0773 36.5794 71.3398 36.6797 71.6021 36.6797C71.8645 36.6797 72.127 36.5796 72.3273 36.3793C72.7277 35.9788 72.7277 35.3296 72.3273 34.9292L71.5943 34.1963L72.3271 33.4635C72.7277 33.063 72.7277 32.4139 72.3273 32.0134C71.9268 31.613 71.2775 31.613 70.8772 32.0134L69.4193 33.4714C69.2269 33.6636 69.1189 33.9245 69.1189 34.1964C69.1189 34.4684 69.2269 34.7292 69.4191 34.9214L70.877 36.3793Z" fill="url(#paint1_linear_820_16251)"/>
<path d="M66.3518 36.3793C66.5521 36.5794 66.8145 36.6796 67.077 36.6796C67.3394 36.6796 67.6019 36.5796 67.802 36.3794C68.2026 35.979 68.2026 35.3297 67.8022 34.9292L67.0693 34.1963L67.8022 33.4635C68.2026 33.063 68.2026 32.4137 67.802 32.0134C67.4017 31.6128 66.7524 31.613 66.352 32.0134L64.8941 33.4714C64.4937 33.8719 64.4937 34.521 64.8941 34.9214L66.3518 36.3793Z" fill="url(#paint2_linear_820_16251)"/>
<path d="M61.8268 36.3793C62.0271 36.5794 62.2896 36.6797 62.552 36.6797C62.8144 36.6797 63.0769 36.5796 63.2772 36.3793C63.6776 35.9788 63.6776 35.3296 63.2772 34.9292L62.5442 34.1963L63.277 33.4635C63.6776 33.063 63.6776 32.4139 63.2772 32.0134C62.8767 31.613 62.2274 31.613 61.8271 32.0134L60.3692 33.4714C60.1768 33.6636 60.0688 33.9245 60.0688 34.1964C60.0688 34.4684 60.1768 34.7292 60.369 34.9214L61.8268 36.3793Z" fill="url(#paint3_linear_820_16251)"/>
<path d="M57.302 36.3793C57.5023 36.5794 57.7648 36.6797 58.0272 36.6797C58.2895 36.6797 58.552 36.5796 58.7523 36.3793C59.1528 35.9788 59.1528 35.3296 58.7523 34.9292L58.0194 34.1963L58.7522 33.4635C59.1528 33.063 59.1528 32.4139 58.7523 32.0134C58.3519 31.613 57.7026 31.613 57.3023 32.0134L55.8443 33.4714C55.652 33.6636 55.544 33.9245 55.544 34.1964C55.544 34.4684 55.652 34.7292 55.8442 34.9214L57.302 36.3793Z" fill="url(#paint4_linear_820_16251)"/>
<path d="M73.7731 57.0606C74.3395 57.0606 74.7985 56.6015 74.7985 56.0352C74.7985 55.4689 74.3395 55.0098 73.7731 55.0098H72.7359V41.3889C72.7359 40.0402 71.6388 38.943 70.2899 38.943H63.8638C63.334 38.943 62.8443 39.1142 62.4433 39.4016C62.0423 39.1141 61.5526 38.9429 61.0227 38.9429H60.0888C59.5223 38.9429 59.0634 39.402 59.0634 39.9683C59.0634 40.5346 59.5223 40.9937 60.0888 40.9937H61.0227C61.2406 40.9937 61.4179 41.171 61.4179 41.3889V42.8558H61.2763C60.7099 42.8558 60.2509 43.3149 60.2509 43.8812C60.2509 44.4475 60.7099 44.9065 61.2763 44.9065H61.4179V52.4214C59.5962 52.4634 58.127 53.9573 58.127 55.789V56.9409C58.127 57.2914 58.2323 57.6174 58.4116 57.8906C58.4116 57.8939 58.4111 57.897 58.4111 57.9004V63.58C58.4111 64.9287 59.5082 66.026 60.8571 66.026H61.4181V73.5389H61.2764C60.71 73.5389 60.251 73.998 60.251 74.5643C60.251 75.1306 60.71 75.5897 61.2764 75.5897H61.4181V77.0565C61.4181 77.2744 61.2407 77.4518 61.0228 77.4518H54.5968C54.3788 77.4518 54.2015 77.2744 54.2015 77.0565V75.5897H54.3431C54.9096 75.5897 55.3685 75.1306 55.3685 74.5643C55.3685 73.998 54.9096 73.5389 54.3431 73.5389H54.2015V44.9065H54.3431C54.9096 44.9065 55.3685 44.4475 55.3685 43.8812C55.3685 43.3149 54.9096 42.8558 54.3431 42.8558H54.2015V41.3889C54.2015 41.171 54.3788 40.9937 54.5968 40.9937H55.5329C56.0993 40.9937 56.5583 40.5346 56.5583 39.9683C56.5583 39.402 56.0993 38.9429 55.5329 38.9429H54.5968C54.0668 38.9429 53.5771 39.1141 53.1761 39.4016C52.7751 39.1141 52.2855 38.943 51.7556 38.943H45.3297C44.7998 38.943 44.31 39.1142 43.9092 39.4017C43.5082 39.1142 43.0185 38.943 42.4885 38.943H36.0625C35.5326 38.943 35.0428 39.1142 34.6418 39.4017C34.2408 39.1142 33.7513 38.943 33.2213 38.943H26.7954C26.6606 38.943 26.5292 38.9568 26.4002 38.9779V33.8373C27.2165 33.005 27.7213 31.866 27.7213 30.6108C27.7213 28.0685 25.653 26.0001 23.1106 26.0001C20.5681 26.0001 18.5 28.0684 18.5 30.6107C18.5 31.8659 19.0048 33.0049 19.8211 33.8371V77.805C19.8211 78.7621 20.5997 79.5407 21.5568 79.5407H24.6644C25.0361 79.5407 25.3801 79.4221 25.6628 79.2224C26.0018 79.4003 26.3866 79.5024 26.7953 79.5024H33.2213C33.7513 79.5024 34.2408 79.3312 34.6418 79.0437C35.0428 79.3312 35.5326 79.5024 36.0625 79.5024H42.4885C43.0185 79.5024 43.5082 79.3312 43.9092 79.0437C44.3102 79.3312 44.7999 79.5024 45.3298 79.5024H51.7559C52.2858 79.5024 52.7754 79.3312 53.1764 79.0437C53.5774 79.3312 54.0671 79.5024 54.597 79.5024H61.0231C61.553 79.5024 62.0427 79.3312 62.4437 79.0437C62.8447 79.3312 63.3343 79.5024 63.8642 79.5024H70.2903C71.639 79.5024 72.7363 78.4051 72.7363 77.0564V64.5656H73.7735C74.3399 64.5656 74.7989 64.1065 74.7989 63.5402C74.7989 62.9739 74.3399 62.5148 73.7735 62.5148H72.7363V57.0604L73.7731 57.0606ZM23.1107 28.0509C24.5222 28.0509 25.6706 29.1992 25.6706 30.6108C25.6706 32.0224 24.5223 33.1708 23.1107 33.1708C21.6991 33.1708 20.5508 32.0223 20.5508 30.6107C20.5508 29.1992 21.6991 28.0509 23.1107 28.0509ZM24.3494 77.49H21.8719V35.051C22.2663 35.1612 22.6815 35.2214 23.1107 35.2214C23.5399 35.2214 23.9549 35.1612 24.3495 35.051L24.3494 77.49ZM42.4885 77.4516H36.0625C35.8446 77.4516 35.6672 77.2743 35.6672 77.0564V75.5895H35.8089C36.3753 75.5895 36.8343 75.1304 36.8343 74.5641C36.8343 73.9978 36.3753 73.5387 35.8089 73.5387H35.6672V59.0429C35.6672 58.4766 35.2083 58.0175 34.6418 58.0175C34.0754 58.0175 33.6164 58.4766 33.6164 59.0429V73.5387H33.4749C32.9085 73.5387 32.4496 73.9978 32.4496 74.5641C32.4496 75.1304 32.9085 75.5895 33.4749 75.5895H33.6164V77.0564C33.6164 77.2743 33.4393 77.4516 33.2213 77.4516H26.7954C26.5775 77.4516 26.4002 77.2743 26.4002 77.0564V41.3889C26.4002 41.171 26.5775 40.9937 26.7954 40.9937H33.2215C33.4394 40.9937 33.6166 41.171 33.6166 41.3889V42.8558H33.4751C32.9087 42.8558 32.4497 43.3149 32.4497 43.8812C32.4497 44.4475 32.9087 44.9065 33.4751 44.9065H33.6166V54.4867C33.6166 55.053 34.0755 55.5121 34.642 55.5121C35.2084 55.5121 35.6674 55.053 35.6674 54.4867V44.9065H35.809C36.3754 44.9065 36.8344 44.4475 36.8344 43.8812C36.8344 43.3149 36.3754 42.8558 35.809 42.8558H35.6674V41.3889C35.6674 41.171 35.8447 40.9937 36.0626 40.9937H42.4887C42.7066 40.9937 42.8839 41.171 42.8839 41.3889V42.8558H42.7424C42.176 42.8558 41.717 43.3149 41.717 43.8812C41.717 44.4475 42.176 44.9065 42.7424 44.9065H42.8839V73.5387H42.7424C42.176 73.5387 41.717 73.9978 41.717 74.5641C41.717 75.1304 42.176 75.5895 42.7424 75.5895H42.8839V77.0564C42.8838 77.2744 42.7065 77.4516 42.4885 77.4516ZM51.7557 77.4516H45.3297C45.1118 77.4516 44.9344 77.2743 44.9344 77.0564V75.5895H45.0759C45.6424 75.5895 46.1013 75.1304 46.1013 74.5641C46.1013 73.9978 45.6424 73.5387 45.0759 73.5387H44.9344V44.9065H45.0759C45.6424 44.9065 46.1013 44.4475 46.1013 43.8812C46.1013 43.3149 45.6424 42.8558 45.0759 42.8558H44.9344V41.3889C44.9344 41.171 45.1118 40.9938 45.3297 40.9938H51.7557C51.9737 40.9938 52.1509 41.171 52.1509 41.3889V42.8558H52.0094C51.4429 42.8558 50.984 43.3149 50.984 43.8812C50.984 44.4475 51.4429 44.9065 52.0094 44.9065H52.1509V73.5387H52.0094C51.4429 73.5387 50.984 73.9978 50.984 74.5641C50.984 75.1304 51.4429 75.5895 52.0094 75.5895H52.1509V77.0564C52.1509 77.2744 51.9737 77.4516 51.7557 77.4516ZM63.6104 42.8558H63.4689V41.3889C63.4689 41.171 63.646 40.9938 63.864 40.9938H70.29C70.508 40.9938 70.6853 41.171 70.6853 41.3889V55.0098H66.8852C66.5324 53.5264 65.1974 52.4195 63.6076 52.4195H63.469V44.9067H63.6105C64.1769 44.9067 64.6359 44.4476 64.6359 43.8813C64.6359 43.315 64.1768 42.8558 63.6104 42.8558ZM60.1779 55.789C60.1779 55.0619 60.7695 54.4702 61.4967 54.4702H63.6075C64.3346 54.4702 64.9263 55.0617 64.9263 55.789V56.6258H60.178L60.1779 55.789ZM60.462 63.58V58.6766H64.642V63.58C64.642 63.7979 64.4647 63.9753 64.2468 63.9753H60.8571C60.6393 63.9753 60.462 63.7979 60.462 63.58ZM70.6851 77.0565C70.6851 77.2744 70.5078 77.4518 70.2899 77.4518H63.8638C63.6459 77.4518 63.4687 77.2744 63.4687 77.0565V75.5897H63.6102C64.1766 75.5897 64.6356 75.1306 64.6356 74.5643C64.6356 73.998 64.1766 73.5389 63.6102 73.5389H63.4687V66.026H64.2466C65.2446 66.026 66.1036 65.4245 66.4835 64.5657H70.685L70.6851 77.0565ZM70.6851 62.5148H66.6928V57.8898C66.8513 57.6483 66.95 57.365 66.9709 57.0606H70.6851V62.5148Z" fill="url(#paint5_linear_820_16251)"/>
</g>
<defs>
<linearGradient id="paint0_linear_820_16251" x1="53.5" y1="26" x2="53.5" y2="79.5408" gradientUnits="userSpaceOnUse">
<stop stop-color="#6BA777"/>
<stop offset="1" stop-color="#3E6B47"/>
</linearGradient>
<linearGradient id="paint1_linear_820_16251" x1="53.5" y1="26" x2="53.5" y2="79.5408" gradientUnits="userSpaceOnUse">
<stop stop-color="#6BA777"/>
<stop offset="1" stop-color="#3E6B47"/>
</linearGradient>
<linearGradient id="paint2_linear_820_16251" x1="53.5" y1="26" x2="53.5" y2="79.5408" gradientUnits="userSpaceOnUse">
<stop stop-color="#6BA777"/>
<stop offset="1" stop-color="#3E6B47"/>
</linearGradient>
<linearGradient id="paint3_linear_820_16251" x1="53.5" y1="26" x2="53.5" y2="79.5408" gradientUnits="userSpaceOnUse">
<stop stop-color="#6BA777"/>
<stop offset="1" stop-color="#3E6B47"/>
</linearGradient>
<linearGradient id="paint4_linear_820_16251" x1="53.5" y1="26" x2="53.5" y2="79.5408" gradientUnits="userSpaceOnUse">
<stop stop-color="#6BA777"/>
<stop offset="1" stop-color="#3E6B47"/>
</linearGradient>
<linearGradient id="paint5_linear_820_16251" x1="53.5" y1="26" x2="53.5" y2="79.5408" gradientUnits="userSpaceOnUse">
<stop stop-color="#6BA777"/>
<stop offset="1" stop-color="#3E6B47"/>
</linearGradient>
<clipPath id="clip0_820_16251">
<rect width="70" height="70" fill="white" transform="translate(18.5 20)"/>
</clipPath>
</defs>
</svg>
