<svg width="108" height="98" viewBox="0 0 108 98" fill="none" xmlns="http://www.w3.org/2000/svg">
<path d="M73.2618 4.37207C86.6708 10.6244 96.4197 22.5622 99.9926 36.8256C103.639 51.3823 101.392 67.1504 91.9152 78.8383C82.5179 90.4279 67.5295 95.3052 52.5356 95.3536C37.5447 95.4019 22.8076 90.3884 13.0579 79.0929C2.92649 67.3551 -1.96602 51.5009 1.72696 36.4891C5.34739 21.7722 17.4186 11.0573 31.3317 4.81071C44.7289 -1.20424 59.9532 -1.8334 73.2618 4.37207Z" fill="#F9F9F9"/>
<path opacity="0.1" d="M105.231 41.5566C108.975 52.9733 107.33 65.3741 100.884 75.404C94.3065 85.6401 83.744 93.055 71.5814 93.9205C59.5213 94.7788 48.3255 88.5995 39.9798 79.7383C31.6357 70.879 26.4231 59.3621 27.6887 47.3171C29.0038 34.8005 35.657 23.1059 46.5749 16.968C57.2783 10.9506 70.305 12.1625 81.7133 16.9448C92.6986 21.5498 101.515 30.2254 105.231 41.5566Z" fill="#5BA763"/>
<g clip-path="url(#clip0_820_7430)">
<path d="M73.1403 58.8505H70.4415C69.9872 54.6249 67.5702 49.9827 63.4212 49.9827H42.8446C40.7894 49.9827 38.9162 51.1995 37.5701 53.4091C36.6425 54.932 36.0426 56.8211 35.8243 58.8505H33.7893C32.7611 58.8505 31.9247 59.6869 31.9247 60.7151V62.8858C31.9247 63.914 32.7611 64.7504 33.7893 64.7504H34.2432C33.8453 65.6036 33.6217 66.5537 33.6217 67.5556V72.9076C33.1767 73.2035 32.8827 73.7089 32.8827 74.2822V75.4287C32.8827 76.297 33.5573 77.0093 34.4097 77.0727V78.8933C34.4097 79.93 35.2531 80.7736 36.2899 80.7736H41.8176C42.8543 80.7736 43.6979 79.9301 43.6979 78.8933V77.0789H48.054C48.3447 77.3344 48.7245 77.4907 49.1409 77.4907H57.1249C57.5414 77.4907 57.9212 77.3344 58.2118 77.0789H62.5679V78.8933C62.5679 79.93 63.4114 80.7736 64.4482 80.7736H69.9759C71.0126 80.7736 71.8562 79.9301 71.8562 78.8933V77.0727C72.7085 77.0092 73.3831 76.297 73.3831 75.4287V74.2822C73.3831 73.7089 73.0889 73.2035 72.6441 72.9076V70.7964C72.6441 70.4478 72.3616 70.1654 72.0131 70.1654C71.6645 70.1654 71.382 70.4479 71.382 70.7964V72.6318H58.2119C57.9117 72.368 57.5206 72.2201 57.1249 72.2201H49.1409C48.7399 72.2201 48.3493 72.3722 48.054 72.6318H34.8838V67.5555C34.8838 64.5305 37.3757 62.1555 40.2838 62.1555H42.973L45.4576 66.2089C46.1518 67.3414 47.4082 68.0449 48.7365 68.0449H57.5295C58.8577 68.0449 60.1141 67.3414 60.8085 66.2089L63.293 62.1555H65.9821C68.8847 62.1555 71.3821 64.5242 71.3821 67.5555V67.8516C71.3821 68.2002 71.6646 68.4826 72.0131 68.4826C72.3617 68.4826 72.6442 68.2001 72.6442 67.8516C72.6279 67.6873 72.7621 66.3362 72.0227 64.7505H73.1403C74.1684 64.7505 75.0048 63.9141 75.0048 62.8858V60.7152C75.0048 59.6869 74.1684 58.8505 73.1403 58.8505ZM33.7893 63.4883C33.4571 63.4883 33.1868 63.2179 33.1868 62.8858V60.7151C33.1868 60.3829 33.4571 60.1127 33.7893 60.1127H35.7377C35.7333 60.2663 35.7306 60.4203 35.7306 60.5749V62.6988C35.471 62.9424 35.2309 63.2063 35.0128 63.4883L33.7893 63.4883ZM42.4357 78.8933C42.4357 79.2341 42.1585 79.5114 41.8176 79.5114H36.2899C35.949 79.5114 35.6718 79.2341 35.6718 78.8933V77.0789H42.4357V78.8933ZM70.5941 78.8933C70.5941 79.2341 70.3169 79.5114 69.976 79.5114H64.4483C64.1074 79.5114 63.8301 79.2341 63.8301 78.8933V77.0789H70.5941V78.8933ZM71.7329 73.894C71.755 73.894 71.7766 73.897 71.7978 73.9008C71.8065 73.9024 71.8153 73.9043 71.824 73.9065C71.9919 73.9489 72.121 74.1032 72.121 74.2821V75.4286C72.121 75.6391 71.9433 75.8168 71.7329 75.8168C70.3479 75.8168 60.1408 75.8168 58.7753 75.8168V73.894H71.7329ZM57.1249 73.4822C57.3358 73.4822 57.513 73.6627 57.513 73.8703V75.8403C57.513 76.0386 57.3443 76.2285 57.1249 76.2285H49.1409C48.9207 76.2285 48.7528 76.0378 48.7528 75.8403V73.8705C48.7528 73.6632 48.9293 73.4823 49.1409 73.4823L57.1249 73.4822ZM47.4906 73.894V75.8169C46.1612 75.8169 35.7541 75.8169 34.533 75.8169C34.3225 75.8169 34.1448 75.6391 34.1448 75.4287V74.2822C34.1448 74.1033 34.2736 73.9491 34.4414 73.9067C34.4504 73.9044 34.4593 73.9024 34.4682 73.9008C34.4894 73.897 34.5108 73.894 34.533 73.894L47.4906 73.894ZM39.1162 60.9968V60.5749C39.1162 58.514 39.5939 56.5945 40.4614 55.1703C41.1694 54.0082 42.0158 53.3682 42.8446 53.3682H51.9923C52.3409 53.3682 52.6233 53.0857 52.6233 52.7372C52.6233 52.3886 52.3409 52.1061 51.9923 52.1061H42.8446C41.5586 52.1061 40.3294 52.9612 39.3836 54.5137C38.3973 56.1331 37.854 58.2857 37.854 60.5749V61.3542C37.5558 61.4715 37.2683 61.6094 36.9928 61.7667V60.5749C36.9928 58.3552 37.4921 55.9633 38.6481 54.0657C39.7563 52.2467 41.2467 51.2449 42.8446 51.2449H63.4213C65.0193 51.2449 66.5097 52.2467 67.6179 54.0656C68.7696 55.9562 69.2732 58.3344 69.2732 60.5749V61.7668C68.9977 61.6096 68.7101 61.4715 68.412 61.3544V60.5749C68.412 58.2855 67.8687 56.133 66.8824 54.5137C65.9366 52.9611 64.7074 52.1061 63.4214 52.1061H54.9373C54.5887 52.1061 54.3063 52.3885 54.3063 52.7371C54.3063 53.0857 54.5888 53.3681 54.9373 53.3681H63.4214C64.2503 53.3681 65.0966 54.0081 65.8044 55.1702C66.672 56.5945 67.1498 58.5139 67.1498 60.5748V60.9968C66.8131 60.9366 66.4149 60.8972 66.033 60.8942C66.03 57.9701 63.6504 55.5922 60.7257 55.5922C57.8012 55.5922 55.4218 57.9697 55.4184 60.8934C53.5494 60.8934 42.2104 60.8934 40.2839 60.8934C39.8892 60.8935 39.4631 60.9348 39.1162 60.9968ZM59.7322 65.5493C59.2659 66.3102 58.4218 66.7828 57.5293 66.7828H48.7365C47.8442 66.7828 47.0001 66.3102 46.5336 65.5493L44.4533 62.1556H61.8125L59.7322 65.5493ZM58.7757 60.8935C58.7792 59.8212 59.6525 58.9498 60.7256 58.9498C61.7987 58.9498 62.6719 59.8211 62.6755 60.8935H58.7757ZM63.9378 60.8935C63.9343 59.1252 62.4947 57.6877 60.7256 57.6877C58.9565 57.6877 57.517 59.1252 57.5134 60.8935H56.6802C56.6837 58.6658 58.4971 56.8544 60.7256 56.8544C62.9541 56.8544 64.7675 58.6658 64.771 60.8935H63.9378ZM73.7427 62.8858C73.7427 63.2179 73.4725 63.4883 73.1403 63.4883H71.253C71.0349 63.2063 70.7948 62.9424 70.5352 62.6988V60.5749C70.5352 60.4218 70.5331 60.2674 70.5285 60.1126H73.1402C73.4724 60.1126 73.7426 60.3828 73.7426 60.715L73.7427 62.8858Z" fill="url(#paint0_linear_820_7430)"/>
<path d="M48.1429 69.1518C47.7943 69.1518 47.5119 69.4342 47.5119 69.7828C47.5119 70.1314 47.7944 70.4138 48.1429 70.4138H58.1229C58.4715 70.4138 58.7539 70.1314 58.7539 69.7828C58.7539 69.4342 58.4715 69.1518 58.1229 69.1518H48.1429Z" fill="url(#paint1_linear_820_7430)"/>
<path d="M66.5786 64.4846C64.8743 64.4846 63.4877 65.8711 63.4877 67.5754C63.4877 69.2797 64.8743 70.6663 66.5786 70.6663C68.283 70.6663 69.6696 69.2798 69.6696 67.5754C69.6696 65.8711 68.283 64.4846 66.5786 64.4846ZM66.5786 69.4043C65.5702 69.4043 64.7499 68.5839 64.7499 67.5755C64.7499 66.5672 65.5702 65.7468 66.5786 65.7468C67.587 65.7468 68.4074 66.5672 68.4074 67.5755C68.4075 68.584 67.5872 69.4043 66.5786 69.4043Z" fill="url(#paint2_linear_820_7430)"/>
<path d="M36.5962 67.5754C36.5962 69.2798 37.9828 70.6663 39.6871 70.6663C41.3915 70.6663 42.778 69.2798 42.778 67.5754C42.778 65.8711 41.3914 64.4846 39.6871 64.4846C37.9829 64.4846 36.5962 65.8711 36.5962 67.5754ZM41.516 67.5754C41.516 68.5839 40.6956 69.4042 39.6873 69.4042C38.6788 69.4042 37.8585 68.5838 37.8585 67.5754C37.8585 66.5671 38.6789 65.7467 39.6873 65.7467C40.6956 65.7467 41.516 66.5671 41.516 67.5754Z" fill="url(#paint3_linear_820_7430)"/>
<path d="M87.1341 44.0563L80.5699 40.7658C80.0753 40.5179 79.4747 40.7197 79.2279 41.2167C78.9813 41.7137 79.1822 42.3175 79.6768 42.5654L86.2409 45.856C86.5192 45.9954 86.6921 46.2763 86.6921 46.589V49.9297C86.6921 50.3415 86.422 50.554 86.3059 50.6262C86.2268 50.6754 86.058 50.7594 85.8426 50.7503C85.8395 50.7502 85.8365 50.7495 85.8333 50.7494C85.78 50.7464 85.7271 50.7377 85.6751 50.7239C85.6725 50.7232 85.67 50.7227 85.6674 50.722C85.6451 50.7158 85.6227 50.7083 85.6007 50.7002C85.5964 50.6987 85.5923 50.6974 85.5881 50.6958C85.5648 50.6867 85.5416 50.6765 85.5188 50.6652C85.517 50.6644 85.5153 50.6637 85.5135 50.6627L54.6959 35.2143C54.0073 34.869 53.1854 34.8691 52.4973 35.2143L21.6797 50.6627C21.6779 50.6635 21.6761 50.6642 21.6745 50.6651C21.6516 50.6764 21.6284 50.6867 21.6049 50.6958C21.6008 50.6974 21.5969 50.6985 21.5929 50.7001C21.5707 50.7083 21.5483 50.7158 21.5257 50.722C21.5232 50.7227 21.5208 50.7232 21.5184 50.7239C21.4663 50.7377 21.4134 50.7464 21.36 50.7494C21.3568 50.7495 21.3538 50.7502 21.3505 50.7503C21.1351 50.7596 20.9662 50.6754 20.8873 50.6262C20.7711 50.554 20.5011 50.3417 20.5011 49.9297V46.589C20.5011 46.2763 20.6739 45.9955 20.9522 45.856L53.3905 29.5951C53.5195 29.5305 53.6738 29.5305 53.8028 29.5951L73.8025 39.6208C74.2968 39.8685 74.8976 39.6667 75.1445 39.1698C75.3911 38.6728 75.1901 38.069 74.6956 37.8212L54.6958 27.7954C54.0075 27.4504 53.1857 27.4504 52.4973 27.7954L20.0591 44.0563C19.0975 44.5385 18.5 45.5089 18.5 46.589V49.9297C18.5 50.9172 18.9989 51.8168 19.8342 52.3364C20.0197 52.4517 20.2147 52.5424 20.415 52.6109V79.954C20.415 80.8985 21.1795 81.6668 22.1192 81.6668H24.2388C25.1785 81.6668 25.9431 80.8983 25.9431 79.954V50.7728L53.3905 37.0137C53.5195 36.9493 53.6736 36.9491 53.8026 37.0137L81.2499 50.7728V79.954C81.2499 80.8985 82.0145 81.6668 82.9542 81.6668H85.0738C86.0135 81.6668 86.778 80.8983 86.778 79.954V52.6111C86.9783 52.5425 87.1734 52.4517 87.3588 52.3365C88.1942 51.8169 88.693 50.9173 88.693 49.9298V46.5891C88.6931 45.5089 88.0957 44.5385 87.1341 44.0563ZM23.9422 79.6558H22.4161V52.5352C22.4689 52.5126 22.5212 52.4884 22.5728 52.4625L23.9422 51.776V79.6558ZM84.777 79.6558H83.251V51.7759L84.6201 52.4623C84.6391 52.4718 84.6585 52.48 84.6776 52.4889C84.7094 52.5039 84.7411 52.5195 84.7732 52.5333L84.777 52.5351V79.6558Z" fill="url(#paint4_linear_820_7430)"/>
</g>
<defs>
<linearGradient id="paint0_linear_820_7430" x1="53.5965" y1="27.5366" x2="53.5965" y2="81.6668" gradientUnits="userSpaceOnUse">
<stop stop-color="#6BA777"/>
<stop offset="1" stop-color="#3E6B47"/>
</linearGradient>
<linearGradient id="paint1_linear_820_7430" x1="53.5965" y1="27.5366" x2="53.5965" y2="81.6668" gradientUnits="userSpaceOnUse">
<stop stop-color="#6BA777"/>
<stop offset="1" stop-color="#3E6B47"/>
</linearGradient>
<linearGradient id="paint2_linear_820_7430" x1="53.5965" y1="27.5366" x2="53.5965" y2="81.6668" gradientUnits="userSpaceOnUse">
<stop stop-color="#6BA777"/>
<stop offset="1" stop-color="#3E6B47"/>
</linearGradient>
<linearGradient id="paint3_linear_820_7430" x1="53.5965" y1="27.5366" x2="53.5965" y2="81.6668" gradientUnits="userSpaceOnUse">
<stop stop-color="#6BA777"/>
<stop offset="1" stop-color="#3E6B47"/>
</linearGradient>
<linearGradient id="paint4_linear_820_7430" x1="53.5965" y1="27.5366" x2="53.5965" y2="81.6668" gradientUnits="userSpaceOnUse">
<stop stop-color="#6BA777"/>
<stop offset="1" stop-color="#3E6B47"/>
</linearGradient>
<clipPath id="clip0_820_7430">
<rect width="70" height="70" fill="white" transform="translate(18.5 19.8654)"/>
</clipPath>
</defs>
</svg>
