<svg width="108" height="98" viewBox="0 0 108 98" fill="none" xmlns="http://www.w3.org/2000/svg">
<path d="M73.2618 4.37207C86.6708 10.6244 96.4197 22.5622 99.9926 36.8256C103.639 51.3823 101.392 67.1504 91.9152 78.8383C82.5179 90.4279 67.5295 95.3052 52.5356 95.3536C37.5447 95.4019 22.8076 90.3884 13.0579 79.0929C2.92649 67.3551 -1.96602 51.5009 1.72696 36.4891C5.34739 21.7722 17.4186 11.0573 31.3317 4.81071C44.7289 -1.20424 59.9532 -1.8334 73.2618 4.37207Z" fill="#F9F9F9"/>
<path opacity="0.1" d="M105.231 41.5566C108.975 52.9733 107.33 65.3741 100.884 75.404C94.3065 85.6401 83.744 93.055 71.5814 93.9205C59.5213 94.7788 48.3255 88.5995 39.9798 79.7383C31.6357 70.879 26.4231 59.3621 27.6887 47.3171C29.0038 34.8005 35.657 23.1059 46.5749 16.968C57.2783 10.9506 70.305 12.1625 81.7133 16.9448C92.6986 21.5498 101.515 30.2254 105.231 41.5566Z" fill="#5BA763"/>
<path d="M77.9228 59.2654C77.4331 59.2393 77.0085 59.6152 76.981 60.108L76.2565 73.1316C76.2303 73.605 75.8383 73.9757 75.364 73.9757H54.9468C54.4533 73.9757 54.0532 74.3758 54.0532 74.8693C54.0532 75.3628 54.4533 75.7628 54.9468 75.7628H67.8695C67.2681 76.5398 66.9096 77.5138 66.9096 78.5703C66.9096 81.1036 68.9706 83.1646 71.5039 83.1646C74.0373 83.1646 76.0983 81.1036 76.0983 78.5703C76.0983 77.514 75.7399 76.5398 75.1384 75.7628C76.5273 75.6574 77.9524 74.8287 78.0408 73.2306L78.7651 60.2072C78.7928 59.7145 78.4156 59.2928 77.9228 59.2654ZM71.504 81.3773C69.9561 81.3773 68.6968 80.118 68.6968 78.5701C68.6968 77.3345 69.4993 76.2828 70.6104 75.9087V78.5701C70.6104 79.0636 71.0105 79.4637 71.504 79.4637C71.9975 79.4637 72.3975 79.0636 72.3975 78.5701V75.9087C73.5088 76.2828 74.3113 77.3344 74.3113 78.5701C74.3113 80.118 73.052 81.3773 71.504 81.3773Z" fill="url(#paint0_linear_820_2444)"/>
<path d="M82.6064 36.9678H81.4536L80.4719 33.0405C79.9605 30.9949 78.1306 29.5662 76.022 29.5662H29.9781C27.8695 29.5662 26.0395 30.9949 25.5282 33.0405L24.5465 36.9678H23.3936C22.9001 36.9678 22.5 37.3678 22.5 37.8613V41.5621C22.5 42.0556 22.9001 42.4556 23.3936 42.4556H26.2486L27.959 73.2304C28.0474 74.8284 29.4723 75.6573 30.8615 75.7628C30.26 76.5397 29.9016 77.5138 29.9016 78.5703C29.9016 81.1035 31.9626 83.1646 34.496 83.1646C37.0293 83.1646 39.0903 81.1035 39.0903 78.5703C39.0903 77.514 38.732 76.5397 38.1304 75.7628H51.0532C51.5467 75.7628 51.9468 75.3627 51.9468 74.8693C51.9468 74.3758 51.5467 73.9757 51.0532 73.9757H30.636C30.1617 73.9757 29.7696 73.6049 29.7434 73.1315L28.0385 42.4556H29.9016V43.4124C29.9016 43.9059 30.3017 44.306 30.7952 44.306C31.2886 44.306 31.6887 43.9059 31.6887 43.4124V42.4556H37.3032V43.4124C37.3032 43.9059 37.7033 44.306 38.1968 44.306C38.6903 44.306 39.0903 43.9059 39.0903 43.4124V42.4556H44.7048V43.4124C44.7048 43.9059 45.1049 44.306 45.5984 44.306C46.0919 44.306 46.4919 43.9059 46.4919 43.4124V42.4556H52.1064V43.4124C52.1064 43.9059 52.5065 44.306 53 44.306C53.4935 44.306 53.8936 43.9059 53.8936 43.4124V42.4556H59.5081V43.4124C59.5081 43.9059 59.9081 44.306 60.4016 44.306C60.8951 44.306 61.2952 43.9059 61.2952 43.4124V42.4556H66.9097V43.4124C66.9097 43.9059 67.3097 44.306 67.8032 44.306C68.2967 44.306 68.6968 43.9059 68.6968 43.4124V42.4556H74.3113V43.4124C74.3113 43.9059 74.7114 44.306 75.2048 44.306C75.6983 44.306 76.0984 43.9059 76.0984 43.4124V42.4556H77.9615L77.1966 56.2192C77.1692 56.712 77.5465 57.1336 78.0392 57.1609C78.5312 57.1896 78.9536 56.811 78.9809 56.3184L79.7512 42.4556H82.6064C83.0999 42.4556 83.5 42.0556 83.5 41.5621V37.8613C83.5 37.3678 83.0999 36.9678 82.6064 36.9678ZM34.496 81.3773C32.9482 81.3773 31.6887 80.118 31.6887 78.5701C31.6887 77.3345 32.4913 76.2828 33.6025 75.9086V78.5701C33.6025 79.0636 34.0026 79.4637 34.496 79.4637C34.9895 79.4637 35.3896 79.0636 35.3896 78.5701V75.9086C36.5007 76.2828 37.3032 77.3344 37.3032 78.5701C37.3032 80.118 36.0439 81.3773 34.496 81.3773ZM27.2618 33.474C27.5741 32.2253 28.691 31.3533 29.9781 31.3533H76.022C77.3091 31.3533 78.426 32.2254 78.7383 33.474L79.6117 36.9678H76.0985V34.1605C76.0985 33.667 75.6984 33.2669 75.205 33.2669H56.7007C56.2073 33.2669 55.8072 33.667 55.8072 34.1605V36.9678H50.193V34.1608C50.193 33.6673 49.793 33.2673 49.2995 33.2673H43.8452C43.3518 33.2673 42.9517 33.6673 42.9517 34.1608C42.9517 34.6543 43.3518 35.0544 43.8452 35.0544H48.4059V36.9677H31.6892V35.0545H39.9505C40.444 35.0545 40.8441 34.6544 40.8441 34.1609C40.8441 33.6675 40.444 33.2674 39.9505 33.2674H30.7955C30.302 33.2674 29.902 33.6675 29.902 34.1609V36.9678H26.3884L27.2618 33.474ZM74.3113 36.9678H57.5943V35.054H74.3113V36.9678ZM81.7129 40.6685H24.2871V38.7549H81.7129V40.6685Z" fill="url(#paint1_linear_820_2444)"/>
<path d="M33.6025 48.9637V71.1685C33.6025 71.662 34.0026 72.0621 34.496 72.0621C34.9895 72.0621 35.3896 71.662 35.3896 71.1685V48.9637C35.3896 48.4702 34.9895 48.0701 34.496 48.0701C34.0026 48.0701 33.6025 48.4702 33.6025 48.9637Z" fill="url(#paint2_linear_820_2444)"/>
<path d="M41.0041 48.9637V71.1685C41.0041 71.662 41.4042 72.0621 41.8976 72.0621C42.3911 72.0621 42.7912 71.662 42.7912 71.1685V48.9637C42.7912 48.4702 42.3911 48.0701 41.8976 48.0701C41.4042 48.0701 41.0041 48.4702 41.0041 48.9637Z" fill="url(#paint3_linear_820_2444)"/>
<path d="M48.4057 48.9637V71.1685C48.4057 71.662 48.8058 72.0621 49.2993 72.0621C49.7927 72.0621 50.1928 71.662 50.1928 71.1685V48.9637C50.1928 48.4702 49.7927 48.0701 49.2993 48.0701C48.8058 48.0701 48.4057 48.4702 48.4057 48.9637Z" fill="url(#paint4_linear_820_2444)"/>
<path d="M57.5943 71.1685V48.9637C57.5943 48.4702 57.1942 48.0701 56.7007 48.0701C56.2073 48.0701 55.8072 48.4702 55.8072 48.9637V71.1685C55.8072 71.662 56.2073 72.0621 56.7007 72.0621C57.1942 72.0621 57.5943 71.662 57.5943 71.1685Z" fill="url(#paint5_linear_820_2444)"/>
<path d="M64.9959 71.1685V48.9637C64.9959 48.4702 64.5958 48.0701 64.1023 48.0701C63.6089 48.0701 63.2088 48.4702 63.2088 48.9637V71.1685C63.2088 71.662 63.6089 72.0621 64.1023 72.0621C64.5958 72.0621 64.9959 71.662 64.9959 71.1685Z" fill="url(#paint6_linear_820_2444)"/>
<path d="M72.3975 71.1685V48.9637C72.3975 48.4702 71.9974 48.0701 71.504 48.0701C71.0105 48.0701 70.6104 48.4702 70.6104 48.9637V71.1685C70.6104 71.662 71.0105 72.0621 71.504 72.0621C71.9974 72.0621 72.3975 71.662 72.3975 71.1685Z" fill="url(#paint7_linear_820_2444)"/>
<defs>
<linearGradient id="paint0_linear_820_2444" x1="53" y1="29.5662" x2="53" y2="83.1646" gradientUnits="userSpaceOnUse">
<stop stop-color="#6BA777"/>
<stop offset="1" stop-color="#3E6B47"/>
</linearGradient>
<linearGradient id="paint1_linear_820_2444" x1="53" y1="29.5662" x2="53" y2="83.1646" gradientUnits="userSpaceOnUse">
<stop stop-color="#6BA777"/>
<stop offset="1" stop-color="#3E6B47"/>
</linearGradient>
<linearGradient id="paint2_linear_820_2444" x1="53" y1="29.5662" x2="53" y2="83.1646" gradientUnits="userSpaceOnUse">
<stop stop-color="#6BA777"/>
<stop offset="1" stop-color="#3E6B47"/>
</linearGradient>
<linearGradient id="paint3_linear_820_2444" x1="53" y1="29.5662" x2="53" y2="83.1646" gradientUnits="userSpaceOnUse">
<stop stop-color="#6BA777"/>
<stop offset="1" stop-color="#3E6B47"/>
</linearGradient>
<linearGradient id="paint4_linear_820_2444" x1="53" y1="29.5662" x2="53" y2="83.1646" gradientUnits="userSpaceOnUse">
<stop stop-color="#6BA777"/>
<stop offset="1" stop-color="#3E6B47"/>
</linearGradient>
<linearGradient id="paint5_linear_820_2444" x1="53" y1="29.5662" x2="53" y2="83.1646" gradientUnits="userSpaceOnUse">
<stop stop-color="#6BA777"/>
<stop offset="1" stop-color="#3E6B47"/>
</linearGradient>
<linearGradient id="paint6_linear_820_2444" x1="53" y1="29.5662" x2="53" y2="83.1646" gradientUnits="userSpaceOnUse">
<stop stop-color="#6BA777"/>
<stop offset="1" stop-color="#3E6B47"/>
</linearGradient>
<linearGradient id="paint7_linear_820_2444" x1="53" y1="29.5662" x2="53" y2="83.1646" gradientUnits="userSpaceOnUse">
<stop stop-color="#6BA777"/>
<stop offset="1" stop-color="#3E6B47"/>
</linearGradient>
</defs>
</svg>
