<svg width="108" height="98" viewBox="0 0 108 98" fill="none" xmlns="http://www.w3.org/2000/svg">
<path d="M73.2618 4.37207C86.6708 10.6244 96.4197 22.5622 99.9926 36.8256C103.639 51.3823 101.392 67.1504 91.9152 78.8383C82.5179 90.4279 67.5295 95.3052 52.5356 95.3536C37.5447 95.4019 22.8076 90.3884 13.0579 79.0929C2.92649 67.3551 -1.96602 51.5009 1.72696 36.4891C5.34739 21.7722 17.4186 11.0573 31.3317 4.81071C44.7289 -1.20424 59.9532 -1.8334 73.2618 4.37207Z" fill="#F9F9F9"/>
<path opacity="0.1" d="M105.231 41.5566C108.975 52.9733 107.33 65.3741 100.884 75.404C94.3065 85.6401 83.744 93.055 71.5814 93.9205C59.5213 94.7788 48.3255 88.5995 39.9798 79.7383C31.6357 70.879 26.4231 59.3621 27.6887 47.3171C29.0038 34.8005 35.657 23.1059 46.5749 16.968C57.2783 10.9506 70.305 12.1625 81.7133 16.9448C92.6986 21.5498 101.515 30.2254 105.231 41.5566Z" fill="#5BA763"/>
<path d="M86.2969 36.7917H85.3027V34.3367C86.5092 33.429 87.2911 31.9854 87.2911 30.3626C87.2911 27.6213 85.0614 25.3916 82.3201 25.3916C79.5788 25.3916 77.3491 27.6213 77.3491 30.3626C77.3491 31.9854 78.131 33.429 79.3375 34.3367V36.7917H78.3433C77.7939 36.7917 77.3491 37.237 77.3491 37.7859V70.8816C77.3491 71.4305 77.7939 71.8758 78.3433 71.8758C78.8927 71.8758 79.3375 71.4305 79.3375 70.8816V38.7801H85.3027V76.5593H79.3375V75.1452C79.3375 74.5963 78.8927 74.151 78.3433 74.151C77.7939 74.151 77.3491 74.5963 77.3491 75.1452V76.5593H65.1537V73.5768C65.1537 73.0279 64.7089 72.5826 64.1595 72.5826H62.0386V50.0476H64.1595C64.7089 50.0476 65.1537 49.6022 65.1537 49.0534V45.0766C65.1537 44.5277 64.7089 44.0824 64.1595 44.0824H62.0386V43.751C62.0386 42.1065 60.7006 40.7684 59.056 40.7684C57.4115 40.7684 56.0734 42.1065 56.0734 43.751V44.0824H54.1291V43.751C54.1291 42.1065 52.7911 40.7684 51.1465 40.7684C49.5019 40.7684 48.1639 42.1065 48.1639 43.751V44.0824H46.2195V43.751C46.2195 42.1065 44.8815 40.7684 43.237 40.7684C41.5929 40.7684 40.2544 42.1065 40.2544 43.751V44.0824H38.3105V43.751C38.3105 42.1065 36.9725 40.7684 35.328 40.7684C33.6834 40.7684 32.3454 42.1065 32.3454 43.751V44.0824H29.3628V37.7859C29.3628 37.237 28.9175 36.7917 28.3686 36.7917H27.3744V34.3367C28.5809 33.429 29.3628 31.9854 29.3628 30.3626C29.3628 27.6213 27.1331 25.3916 24.3919 25.3916C21.6506 25.3916 19.4209 27.6213 19.4209 30.3626C19.4209 31.9854 20.2028 33.429 21.4093 34.3367V36.7917H20.4151C19.8662 36.7917 19.4209 37.237 19.4209 37.7859V81.5303C19.4209 82.0792 19.8662 82.5245 20.4151 82.5245H86.2969C86.8463 82.5245 87.2911 82.0792 87.2911 81.5303V37.7859C87.2911 37.237 86.8463 36.7917 86.2969 36.7917ZM82.3201 27.38C83.9647 27.38 85.3027 28.718 85.3027 30.3626C85.3027 32.0071 83.9647 33.3451 82.3201 33.3451C80.6755 33.3451 79.3375 32.0071 79.3375 30.3626C79.3375 28.718 80.6755 27.38 82.3201 27.38ZM81.3259 36.7917V35.2336C81.6475 35.2988 81.9799 35.3335 82.3201 35.3335C82.6603 35.3335 82.9927 35.2988 83.3143 35.2336V36.7917H81.3259ZM63.1653 46.0708V48.0592H62.0386V46.0708H63.1653ZM59.056 42.7568C59.6044 42.7568 60.0502 43.2027 60.0502 43.751V72.5826H58.0618V43.751C58.0618 43.2027 58.5077 42.7568 59.056 42.7568ZM54.1291 72.5826V50.0476H56.0734V72.5826H54.1291ZM56.0734 46.0708V48.0592H54.1291V46.0708H56.0734ZM50.1523 43.751C50.1523 43.2027 50.5981 42.7568 51.1465 42.7568C51.6949 42.7568 52.1407 43.2027 52.1407 43.751V72.5826H50.1523V43.751ZM46.2201 72.5826V50.0476H48.1639V72.5826H46.2201ZM48.1639 46.0708V48.0592H46.2201V46.0708H48.1639ZM43.2375 42.7568C43.7859 42.7568 44.2317 43.2027 44.2317 43.751V72.5826H42.2433V43.751C42.2433 43.2027 42.6891 42.7568 43.2375 42.7568ZM38.3105 72.5826V50.0476H40.2549V72.5826H38.3105ZM40.2549 46.0708V48.0592H38.3105V46.0708H40.2549ZM34.3338 43.751C34.3338 43.2027 34.7796 42.7568 35.328 42.7568C35.8763 42.7568 36.3222 43.2027 36.3222 43.751V72.5826H34.3338V43.751ZM32.3454 46.0708V48.0592H29.3628V46.0708H32.3454ZM24.3919 27.38C26.0364 27.38 27.3744 28.718 27.3744 30.3626C27.3744 32.0071 26.0364 33.3451 24.3919 33.3451C22.7473 33.3451 21.4093 32.0071 21.4093 30.3626C21.4093 28.718 22.7473 27.38 24.3919 27.38ZM23.3977 35.2336C23.7192 35.2988 24.0517 35.3335 24.3919 35.3335C24.7321 35.3335 25.0645 35.2988 25.3861 35.2336V36.7917H23.3977V35.2336ZM21.4093 38.7801H27.3744V50.6441C27.3744 51.193 27.8197 51.6383 28.3686 51.6383C28.9175 51.6383 29.3628 51.193 29.3628 50.6441V50.0476H32.3454V72.5826H29.3628V54.8528C29.3628 54.3039 28.9175 53.8586 28.3686 53.8586C27.8197 53.8586 27.3744 54.3039 27.3744 54.8528V76.5593H21.4093V38.7801ZM85.3027 80.5361H21.4093V78.5477H32.1906C32.74 78.5477 33.1848 78.1024 33.1848 77.5535C33.1848 77.0047 32.74 76.5593 32.1906 76.5593H29.3628V74.571H63.1653V76.5593H36.3884C35.8396 76.5593 35.3942 77.0047 35.3942 77.5535C35.3942 78.1024 35.8396 78.5477 36.3884 78.5477H85.3027V80.5361Z" fill="url(#paint0_linear_820_17089)"/>
<defs>
<linearGradient id="paint0_linear_820_17089" x1="53.356" y1="25.3916" x2="53.356" y2="82.5245" gradientUnits="userSpaceOnUse">
<stop stop-color="#6BA777"/>
<stop offset="1" stop-color="#3E6B47"/>
</linearGradient>
</defs>
</svg>
